<svg id="allergy" xmlns="http://www.w3.org/2000/svg" width="19.87" height="19.87" viewBox="0 0 19.87 19.87">
  <ellipse id="Ellipse_15" data-name="Ellipse 15" cx="0.388" cy="0.388" rx="0.388" ry="0.388" transform="translate(7.791 5.845)" fill="#1a8acc"/>
  <ellipse id="Ellipse_16" data-name="Ellipse 16" cx="0.437" cy="0.437" rx="0.437" ry="0.437" transform="translate(5.818 6.326)" fill="#1a8acc"/>
  <path id="Path_1121" data-name="Path 1121" d="M152.615,210.761a.424.424,0,1,0,.424.424A.424.424,0,0,0,152.615,210.761Z" transform="translate(-146.285 -202.582)" fill="#1a8acc"/>
  <path id="Path_1122" data-name="Path 1122" d="M205.046,226.675a.426.426,0,1,0,.426.426A.426.426,0,0,0,205.046,226.675Z" transform="translate(-196.679 -217.878)" fill="#1a8acc"/>
  <path id="Path_1123" data-name="Path 1123" d="M188.016,187.221a.466.466,0,1,0-.466.466A.466.466,0,0,0,188.016,187.221Z" transform="translate(-179.824 -179.507)" fill="#1a8acc"/>
  <ellipse id="Ellipse_17" data-name="Ellipse 17" cx="0.426" cy="0.426" rx="0.426" ry="0.426" transform="translate(9.016 7.125)" fill="#1a8acc"/>
  <path id="Path_1124" data-name="Path 1124" d="M13.19,5.372A2.309,2.309,0,0,0,9.939,2.121a2.309,2.309,0,0,0-4.6,0A2.309,2.309,0,0,0,2.092,5.372a2.309,2.309,0,0,0,0,4.6,2.309,2.309,0,0,0,1.782,3.781,2.287,2.287,0,0,0,.8-.145,17.366,17.366,0,0,0-1.625,5.87.388.388,0,0,0,.35.423l.037,0a.388.388,0,0,0,.386-.352,16.591,16.591,0,0,1,1.64-5.785,2.308,2.308,0,0,0,4.479-.543,2.309,2.309,0,0,0,3.251-3.25,2.309,2.309,0,0,0,0-4.6ZM7.641,10.749A3.078,3.078,0,1,1,10.719,7.67,3.082,3.082,0,0,1,7.641,10.749Zm3.768-8.382a1.536,1.536,0,0,1,.433,3.01l-.921.271A3.884,3.884,0,0,0,9.664,4.391l.271-.921a1.545,1.545,0,0,1,1.474-1.1ZM6.554,1.256A1.536,1.536,0,0,1,8.99,3.078L8.53,3.92a3.864,3.864,0,0,0-1.779,0l-.459-.842a1.545,1.545,0,0,1,.262-1.822ZM3.873,2.366a1.545,1.545,0,0,1,1.474,1.1l.271.921A3.885,3.885,0,0,0,4.361,5.648L3.44,5.377a1.536,1.536,0,0,1,.433-3.01Zm-3.1,5.3a1.526,1.526,0,0,1,.45-1.086,1.545,1.545,0,0,1,1.822-.262l.842.459a3.864,3.864,0,0,0,0,1.779l-.842.459a1.545,1.545,0,0,1-1.822-.262A1.526,1.526,0,0,1,.776,7.67Zm1.561,3.768a1.545,1.545,0,0,1,1.1-1.474l.921-.271A3.885,3.885,0,0,0,5.618,10.95l-.271.921a1.536,1.536,0,0,1-3.01-.433Zm6.39,2.647a1.536,1.536,0,0,1-2.469-1.756q.281-.451.592-.885a3.866,3.866,0,0,0,1.68-.022l.459.842A1.545,1.545,0,0,1,8.727,14.085Zm2.681-1.111a1.545,1.545,0,0,1-1.474-1.1l-.271-.921a3.885,3.885,0,0,0,1.257-1.257l.921.271a1.536,1.536,0,0,1-.433,3.01Zm2.647-4.218a1.545,1.545,0,0,1-1.822.262l-.842-.459a3.864,3.864,0,0,0,0-1.779l.842-.459a1.545,1.545,0,0,1,1.822.262,1.536,1.536,0,0,1,0,2.173Z" transform="translate(0 -0.03)" fill="#1a8acc"/>
  <path id="Path_1125" data-name="Path 1125" d="M398.518,76.541a.388.388,0,0,0,0,.776.428.428,0,1,1,0,.856h-2.941a.388.388,0,1,0,0,.776h2.941a1.2,1.2,0,1,0,0-2.408Z" transform="translate(-379.852 -73.571)" fill="#1a8acc"/>
  <path id="Path_1126" data-name="Path 1126" d="M432.163,165.713h-1.3a.388.388,0,1,0,0,.776h1.3a.388.388,0,0,0,0-.776Z" transform="translate(-413.772 -159.282)" fill="#1a8acc"/>
  <ellipse id="Ellipse_18" data-name="Ellipse 18" cx="0.388" cy="0.388" rx="0.388" ry="0.388" transform="translate(18.192 1.332)" fill="#1a8acc"/>
  <ellipse id="Ellipse_19" data-name="Ellipse 19" cx="0.388" cy="0.388" rx="0.388" ry="0.388" transform="translate(15.985)" fill="#1a8acc"/>
  <ellipse id="Ellipse_20" data-name="Ellipse 20" cx="0.388" cy="0.388" rx="0.388" ry="0.388" transform="translate(13.909 0.603)" fill="#1a8acc"/>
  <ellipse id="Ellipse_21" data-name="Ellipse 21" cx="0.388" cy="0.388" rx="0.388" ry="0.388" transform="translate(14.987 2.658)" fill="#1a8acc"/>
</svg>
