<svg xmlns="http://www.w3.org/2000/svg" width="16.635" height="16.635" viewBox="0 0 16.635 16.635">
  <g id="bonus-size" transform="translate(-0.125 -0.125)">
    <path id="Path_1172" data-name="Path 1172" d="M16.364,4.35H12.9A2.5,2.5,0,0,0,11.083.125c-1.153,0-2.126.943-2.641,2.349C7.928,1.068,6.956.125,5.8.125A2.5,2.5,0,0,0,3.982,4.35H.521a.4.4,0,0,0-.4.4V7.915a.4.4,0,0,0,.4.4h.66v7A1.454,1.454,0,0,0,2.634,16.76H14.252A1.454,1.454,0,0,0,15.7,15.308v-7h.66a.4.4,0,0,0,.4-.4V4.746a.4.4,0,0,0-.4-.4ZM11.083.917a1.716,1.716,0,1,1,0,3.433H8.863C8.985,2.455,9.945.917,11.083.917Zm-7,1.716A1.718,1.718,0,0,1,5.8.917c1.138,0,2.1,1.537,2.22,3.433H5.8A1.718,1.718,0,0,1,4.086,2.634ZM14.912,15.308a.661.661,0,0,1-.66.66H2.634a.661.661,0,0,1-.66-.66v-7H3.69a.4.4,0,0,0,0-.792H.917V5.142H15.968V7.519H13.2a.4.4,0,0,0,0,.792h1.716Z" fill="#1a8acc"/>
    <path id="Path_1173" data-name="Path 1173" d="M11.208,8.671,9.224,8.382l-.888-1.8a.39.39,0,0,0-.672,0l-.888,1.8-1.984.289a.375.375,0,0,0-.208.64l1.436,1.4-.338,1.977a.375.375,0,0,0,.544.4L8,12.149l1.774.933a.375.375,0,0,0,.544-.4L9.98,10.71l1.436-1.4a.375.375,0,0,0-.208-.64Zm-1.893,1.64a.372.372,0,0,0-.107.332l.243,1.422-1.276-.671a.377.377,0,0,0-.35,0l-1.276.671.243-1.422a.372.372,0,0,0-.107-.332L5.651,9.3,7.079,9.1a.374.374,0,0,0,.282-.205L8,7.6l.639,1.293a.374.374,0,0,0,.282.205l1.428.208Z" transform="translate(0.443 0.615)" fill="#1a8acc"/>
  </g>
</svg>
