<svg id="cart" xmlns="http://www.w3.org/2000/svg" width="14.786" height="14.99" viewBox="0 0 14.786 14.99">
  <g id="Group_15" data-name="Group 15" transform="translate(0 0)">
    <path id="Path_68" data-name="Path 68" d="M13.527,16.683H5.346A3.156,3.156,0,0,1,2.2,13.537v-.1l.315-8.391A3.134,3.134,0,0,1,5.661,2h7.552a3.134,3.134,0,0,1,3.146,3.042l.315,8.391a3.035,3.035,0,0,1-.839,2.255,2.986,2.986,0,0,1-2.2,1h-.1ZM5.661,3.049a2.084,2.084,0,0,0-2.1,1.993l-.315,8.5a2.1,2.1,0,0,0,2.1,2.1h8.286a1.951,1.951,0,0,0,1.468-.682,2.285,2.285,0,0,0,.577-1.521l-.315-8.391a2.049,2.049,0,0,0-2.1-1.993Z" transform="translate(-2.047 -1.847)" fill="#1387cb"/>
    <path id="Path_68_-_Outline" data-name="Path 68 - Outline" d="M13.66,16.865H5.375a3.3,3.3,0,0,1-3.3-3.3v-.1l.315-8.4a3.28,3.28,0,0,1,3.3-3.189h7.551a3.28,3.28,0,0,1,3.3,3.19l.315,8.389a3.2,3.2,0,0,1-.879,2.364A3.122,3.122,0,0,1,13.66,16.865ZM5.689,2.181A2.975,2.975,0,0,0,2.7,5.074l-.315,8.392v.1a3,3,0,0,0,2.993,2.993H13.66a2.819,2.819,0,0,0,2.09-.947,2.9,2.9,0,0,0,.8-2.142l-.315-8.394a2.976,2.976,0,0,0-2.993-2.894ZM13.66,15.816H5.375a2.253,2.253,0,0,1-2.251-2.251l.315-8.5a2.247,2.247,0,0,1,2.251-2.14h7.6a2.192,2.192,0,0,1,2.251,2.139l.315,8.392a2.435,2.435,0,0,1-.615,1.627A2.112,2.112,0,0,1,13.66,15.816ZM5.689,3.23A1.941,1.941,0,0,0,3.745,5.077L3.43,13.571A1.946,1.946,0,0,0,5.375,15.51H13.66a1.806,1.806,0,0,0,1.353-.629,2.13,2.13,0,0,0,.539-1.42l-.315-8.385A1.893,1.893,0,0,0,13.293,3.23Z" transform="translate(-2.075 -1.875)" fill="#1387cb"/>
  </g>
  <g id="Group_16" data-name="Group 16" transform="translate(3.566 2.098)">
    <path id="Path_69" data-name="Path 69" d="M12.671,10.2A3.648,3.648,0,0,1,9,6.524a.524.524,0,0,1,1.049,0,2.622,2.622,0,0,0,5.244,0,.524.524,0,0,1,1.049,0A3.648,3.648,0,0,1,12.671,10.2Z" transform="translate(-8.847 -5.847)" fill="#1387cb"/>
    <path id="Path_69_-_Outline" data-name="Path 69 - Outline" d="M12.7,10.377A3.8,3.8,0,0,1,8.875,6.553a.678.678,0,0,1,1.355,0,2.469,2.469,0,1,0,4.938,0,.678.678,0,0,1,1.355,0A3.8,3.8,0,0,1,12.7,10.377Zm-3.146-4.2a.344.344,0,0,0-.371.371,3.518,3.518,0,0,0,7.035,0,.371.371,0,1,0-.742,0,2.775,2.775,0,0,1-5.55,0A.344.344,0,0,0,9.553,6.181Z" transform="translate(-8.875 -5.875)" fill="#1387cb"/>
  </g>
</svg>
