<svg xmlns="http://www.w3.org/2000/svg" width="16.088" height="12.103" viewBox="0 0 16.088 12.103">
  <g id="Group_1093" data-name="Group 1093" transform="translate(0.075 -59.336)">
    <path id="Path_165" data-name="Path 165" d="M14.443,71.364H1.494A1.5,1.5,0,0,1,0,69.87V67.38a.5.5,0,0,1,.5-.5,1.494,1.494,0,1,0,0-2.988.5.5,0,0,1-.5-.5v-2.49a1.5,1.5,0,0,1,1.494-1.494H14.443a1.5,1.5,0,0,1,1.494,1.494V63.4a.5.5,0,0,1-.5.5,1.494,1.494,0,0,0,0,2.988.5.5,0,0,1,.5.5v2.49a1.5,1.5,0,0,1-1.494,1.494ZM1,67.828V69.87a.5.5,0,0,0,.5.5H14.443a.5.5,0,0,0,.5-.5V67.828a2.491,2.491,0,0,1,0-4.88V60.905a.5.5,0,0,0-.5-.5H1.494a.5.5,0,0,0-.5.5v2.042a2.49,2.49,0,0,1,0,4.88Z" transform="translate(0 0)" fill="#fff" stroke="#fff" stroke-width="0.15"/>
    <path id="Path_166" data-name="Path 166" d="M0,0H8.511V1H0Z" transform="translate(6.008 69.19) rotate(-69.444)" fill="#fff" stroke="#fff" stroke-width="0.15"/>
    <path id="path-1_20_" d="M120.317,151.517a1.494,1.494,0,1,1,1.494-1.494A1.5,1.5,0,0,1,120.317,151.517Zm0-1.992a.5.5,0,1,0,.5.5A.5.5,0,0,0,120.317,149.525Z" transform="translate(-114.705 -85.962)" fill="#fff" stroke="#fff" stroke-width="0.15"/>
    <path id="path-1_19_" d="M268.846,240.634a1.494,1.494,0,1,1,1.494-1.494A1.5,1.5,0,0,1,268.846,240.634Zm0-1.992a.5.5,0,1,0,.5.5A.5.5,0,0,0,268.846,238.642Z" transform="translate(-258.085 -171.99)" fill="#fff" stroke="#fff" stroke-width="0.15"/>
  </g>
</svg>
