<svg xmlns="http://www.w3.org/2000/svg" width="18.322" height="20.515" viewBox="0 0 18.322 20.515">
  <g id="digestion" transform="translate(-7 -4.008)">
    <path id="Path_1149" data-name="Path 1149" d="M23.536,14.309c-1-2.437-.964-2.995-.3-5.827a18.35,18.35,0,0,0,.625-4.11.366.366,0,0,0-.733,0,12.912,12.912,0,0,1-.3,2.557c-2.28-.086-5.287-1.092-6.664-1.092-1.351,0-4.41,1.006-6.665,1.092a12.939,12.939,0,0,1-.3-2.557.366.366,0,0,0-.733,0,18.344,18.344,0,0,0,.625,4.11c.646,2.774.712,3.354-.3,5.827A22.6,22.6,0,0,0,7,24.159a.366.366,0,0,0,.733,0,33.609,33.609,0,0,1,.177-3.586,40.315,40.315,0,0,0,8.251,1.021,40.316,40.316,0,0,0,8.251-1.021,33.609,33.609,0,0,1,.177,3.586.366.366,0,0,0,.733,0A22.594,22.594,0,0,0,23.536,14.309Zm-7.375,6.552A39.619,39.619,0,0,1,8,19.842a19.41,19.41,0,0,1,1.465-5.254c1.1-2.68,1.005-3.418.34-6.272-.051-.218-.1-.438-.151-.658,2.28-.118,5.3-1.087,6.508-1.087,1.234,0,4.187.967,6.508,1.087q-.075.331-.151.658c-.669,2.875-.751,3.616.34,6.272a19.384,19.384,0,0,1,1.465,5.254,39.584,39.584,0,0,1-8.162,1.019Z" fill="#1a8acc"/>
    <path id="Path_1150" data-name="Path 1150" d="M25.126,32.078A3.295,3.295,0,0,1,19.2,30.259l.832.832a.366.366,0,0,0,.518-.518l-1.466-1.466a.366.366,0,0,0-.518,0L17.1,30.573a.366.366,0,0,0,.518.518l.848-.848a4.028,4.028,0,0,0,7.248,2.274A.367.367,0,0,0,25.126,32.078Z" transform="translate(-6.327 -15.834)" fill="#1a8acc"/>
    <path id="Path_1151" data-name="Path 1151" d="M31.159,24.039l-.848.848a4.028,4.028,0,0,0-7.248-2.274.367.367,0,0,0,.586.44,3.3,3.3,0,0,1,5.929,1.819l-.832-.832a.366.366,0,0,0-.518.518l1.466,1.466a.366.366,0,0,0,.518,0l1.466-1.466A.366.366,0,0,0,31.159,24.039Z" transform="translate(-10.127 -10.766)" fill="#1a8acc"/>
  </g>
</svg>
