<svg xmlns="http://www.w3.org/2000/svg" width="22.123" height="21.363" viewBox="0 0 22.123 21.363">
  <path id="energy" d="M47.06,58.2a.335.335,0,0,0-.334.113l-3.02,3.648-7.881-4.1,7.106,1.64a.335.335,0,0,0,.334-.112l3.02-3.648,7.881,4.1Zm-4.3-6.386-3.938,6.052,1.145.264,4.622-5.017A2.985,2.985,0,0,1,42.756,51.815Zm2.708,1.335L40.716,58.3l2.166.5,3.061-3.7a.335.335,0,0,1,.413-.084l1.9.989-.382-3.052Zm-2-3.082a1.314,1.314,0,0,0,.027,1.642,2.6,2.6,0,0,0,1.467.807l3.18-.251a.336.336,0,0,1,.359.293l.48,3.829,1.1.571L49.811,51a1.871,1.871,0,0,0-.808-.21L46.4,50.5a.336.336,0,0,1-.2-.572l2.892-2.846c.772-.76.075-1.771-.157-2.062A12.518,12.518,0,0,0,47.15,43.46c-1.4-1.045-1.771-.986-1.774-.985L41.5,43.3a.734.734,0,0,0-.377.942.975.975,0,0,0,.935.042c.334-.126.6-.587.9-.628l1.881-.255a.336.336,0,0,1,.291.1L46.8,45.3a.336.336,0,0,1,.02.434Zm5.346-6.808a1.259,1.259,0,0,1,1.275-1.232,1.243,1.243,0,0,1,1.171,1.317,1.224,1.224,0,0,1-2.107.848A1.284,1.284,0,0,1,48.812,43.259Zm3.179,4.351L53.215,46.6a.333.333,0,0,0,.1-.148l.1-.3a.759.759,0,0,1,.585-.558c.22.007.341.355.383.5a.875.875,0,0,1-.3.93l-1.815,1.329a1.546,1.546,0,0,1-1.688.152l-1.3-.67.28-.275a1.778,1.778,0,0,0,.541-1.043l1.477,1.1A.335.335,0,0,0,51.991,47.61ZM55.8,59.933l-5.034-2.618-.286-6.39c-.02-.437-.492-.708-1.4-.806l-1.9-.206,1.6-1.578,1.5.77a2.214,2.214,0,0,0,2.39-.207l1.815-1.329a1.557,1.557,0,0,0,.551-1.651c-.419-1.5-1.846-1.135-2.247.013l-.072.207-.949.787-1.757-1.309a2.81,2.81,0,0,0-.152-.378,1.948,1.948,0,1,0-1.715-1.855c-.2-.159-.4-.317-.595-.465-1.659-1.239-2.15-1.135-2.311-1.1l-3.873.823a1.387,1.387,0,0,0-.858,1.851c.231.567,1.114.672,1.793.415a3.107,3.107,0,0,0,.815-.6l1.649-.223,1.355,1.458-3.181,4.111a2,2,0,0,0-.411,1.284l-4.4,6.765-3.6-.83a.481.481,0,0,0-.33.9l9.444,4.911a.336.336,0,0,0,.413-.084l3.061-3.7,8.357,1.929a.481.481,0,0,0,.33-.9Z" transform="translate(-33.934 -41.356)" fill="#1a8acc" fill-rule="evenodd"/>
</svg>
