<svg xmlns="http://www.w3.org/2000/svg" xmlns:xlink="http://www.w3.org/1999/xlink" width="17.696" height="18.902" viewBox="0 0 17.696 18.902">
  <defs>
    <clipPath id="clip-path">
      <rect id="Rectangle_355" data-name="Rectangle 355" width="17.696" height="18.902" transform="translate(0 0)" fill="#1a8acc"/>
    </clipPath>
  </defs>
  <g id="flyer-specials" transform="translate(0 0)">
    <g id="Group_1095" data-name="Group 1095" clip-path="url(#clip-path)">
      <path id="Path_1185" data-name="Path 1185" d="M5,1.244a.341.341,0,0,0,.165-.2A.344.344,0,0,0,4.684.632L.188,2.91A.342.342,0,0,0,0,3.216V18.554a.345.345,0,0,0,.344.344.385.385,0,0,0,.083-.01V18.9L5,16.584a.344.344,0,0,0-.312-.612L.688,18V3.431Z" fill="#1a8acc"/>
      <path id="Path_1186" data-name="Path 1186" d="M17.595.1a.343.343,0,0,0-.242-.1h0A.332.332,0,0,0,17.2.038L11.682,2.833,6.169.038a.344.344,0,0,0-.5.306V15.682a.342.342,0,0,0,.188.308l5.669,2.875a.36.36,0,0,0,.156.036.355.355,0,0,0,.155-.036l5.67-2.875a.342.342,0,0,0,.188-.307V.344a.344.344,0,0,0-.1-.243m-.587.8V15.472L12.026,18V3.43ZM11.339,3.43V18L6.357,15.472V.9Z" fill="#1a8acc"/>
      <path id="Path_1187" data-name="Path 1187" d="M7.621,14.909,9.765,16a.341.341,0,0,0,.155.038.364.364,0,0,0,.108-.017.344.344,0,0,0,.2-.171.351.351,0,0,0,.037-.156V9.174a.339.339,0,0,0-.188-.306L7.932,7.78a.346.346,0,0,0-.463.152.35.35,0,0,0-.037.155V14.6a.343.343,0,0,0,.189.306m.5-.517V8.647l1.458.739V15.13Z" fill="#1a8acc"/>
      <path id="Path_1188" data-name="Path 1188" d="M9.765,7.829a.348.348,0,0,0,.145.032.364.364,0,0,0,.117-.02.345.345,0,0,0,.048-.626L7.929,6.127a.344.344,0,0,0-.311.614Z" fill="#1a8acc"/>
      <path id="Path_1189" data-name="Path 1189" d="M9.765,6.181a.348.348,0,0,0,.145.032.364.364,0,0,0,.117-.02.345.345,0,0,0,.048-.626L7.929,4.479a.344.344,0,0,0-.311.614Z" fill="#1a8acc"/>
      <path id="Path_1190" data-name="Path 1190" d="M13.453,16.028A.344.344,0,0,0,13.6,16l2.147-1.089a.344.344,0,0,0-.314-.612l-2.145,1.087a.344.344,0,0,0,.166.646" fill="#1a8acc"/>
      <path id="Path_1191" data-name="Path 1191" d="M13.454,4.64a.339.339,0,0,0,.145-.032L15.746,3.52a.346.346,0,0,0,.135-.467.342.342,0,0,0-.448-.145L13.287,3.995a.343.343,0,0,0-.164.2.344.344,0,0,0,.331.44" fill="#1a8acc"/>
      <path id="Path_1192" data-name="Path 1192" d="M13.454,6.919a.355.355,0,0,0,.145-.032L15.746,5.8a.344.344,0,0,0-.313-.612L13.287,6.273a.344.344,0,0,0,.167.646" fill="#1a8acc"/>
      <path id="Path_1193" data-name="Path 1193" d="M13.454,9.195a.339.339,0,0,0,.145-.032l2.147-1.089a.344.344,0,0,0-.313-.612L13.287,8.549a.344.344,0,0,0,.167.646" fill="#1a8acc"/>
      <path id="Path_1194" data-name="Path 1194" d="M13.454,11.473a.339.339,0,0,0,.145-.032l2.147-1.088a.346.346,0,0,0,.135-.467.342.342,0,0,0-.448-.145l-2.146,1.087a.345.345,0,0,0-.135.467.346.346,0,0,0,.3.178" fill="#1a8acc"/>
      <path id="Path_1195" data-name="Path 1195" d="M13.454,13.752a.355.355,0,0,0,.145-.032l2.147-1.09a.344.344,0,0,0-.313-.612l-2.146,1.088a.344.344,0,0,0,.167.646" fill="#1a8acc"/>
    </g>
  </g>
</svg>
