<svg xmlns="http://www.w3.org/2000/svg" xmlns:xlink="http://www.w3.org/1999/xlink" width="188.619" height="188.627" viewBox="0 0 188.619 188.627">
  <defs>
    <clipPath id="clip-path">
      <rect id="Rectangle_38" data-name="Rectangle 38" width="188.619" height="188.627" fill="none"/>
    </clipPath>
  </defs>
  <g id="footer-logo" transform="translate(-140 -67)">
    <g id="Group_2" data-name="Group 2" transform="translate(140 67)">
      <g id="Group_1" data-name="Group 1" clip-path="url(#clip-path)">
        <path id="Path_1" data-name="Path 1" d="M189.581,271.5a93.214,93.214,0,1,1-186.428,0" transform="translate(-2.058 -177.185)" fill="#fff"/>
        <path id="Path_2" data-name="Path 2" d="M3.153,96.37a93.214,93.214,0,1,1,186.428,0" transform="translate(-2.058 -2.058)" fill="#fff"/>
        <path id="Path_3" data-name="Path 3" d="M94.31,188.627a94.315,94.315,0,0,1-66.688-161A94.311,94.311,0,0,1,161,161,93.689,93.689,0,0,1,94.31,188.627m0-186.436a92.123,92.123,0,1,0,92.118,92.121A92.225,92.225,0,0,0,94.31,2.191" transform="translate(0 0)" fill="#1a1818"/>
        <path id="Path_4" data-name="Path 4" d="M189.581,271.5a93.214,93.214,0,1,1-186.428,0" transform="translate(-2.058 -177.185)" fill="#fff"/>
        <path id="Path_5" data-name="Path 5" d="M3.153,96.37a93.214,93.214,0,1,1,186.428,0" transform="translate(-2.058 -2.058)" fill="#fff"/>
        <path id="Path_6" data-name="Path 6" d="M84.038,219.771c0-35.753,32.46-26.98,68.21-26.98s61.255-8.773,61.255,26.98a64.732,64.732,0,1,1-129.465,0" transform="translate(-54.845 -125.199)" fill="#1387cb"/>
        <path id="Path_7" data-name="Path 7" d="M85.64,164.86c19.279-7.853,36.431-14.871,69.172-2.621,26.736,10,45.812,8.114,56.173,6.028A64.725,64.725,0,1,0,85.64,164.86" transform="translate(-54.836 -55.896)" fill="#f77c27"/>
        <path id="Path_8" data-name="Path 8" d="M359.045,224.636c-10.881-7.2-23.429-17.422-37.16-.049,13.731,17.379,26.279,7.246,37.16.049" transform="translate(-210.069 -140.33)" fill="#fff"/>
        <rect id="Rectangle_1" data-name="Rectangle 1" width="37.09" height="1.007" transform="translate(111.816 83.754)" fill="#1a1818"/>
        <path id="Path_9" data-name="Path 9" d="M336.875,233.747c-5.952,0-11.4-3.222-16.59-9.791l-.247-.312.247-.312c5.862-7.418,12.057-10.552,18.937-9.581,5.979.843,11.493,4.551,16.826,8.137.7.468,1.387.932,2.07,1.385l.634.42-.634.42c-.655.433-1.315.877-1.982,1.324-5.344,3.589-10.87,7.3-16.864,8.14a17.256,17.256,0,0,1-2.4.17m-15.551-10.1c12.52,15.551,24.061,7.8,34.251.957q.682-.458,1.355-.908-.718-.479-1.445-.969c-10.166-6.837-21.679-14.581-34.162.921" transform="translate(-208.864 -139.387)" fill="#1a1818"/>
        <rect id="Rectangle_2" data-name="Rectangle 2" width="1.2" height="57.238" transform="translate(93.499 75.272)" fill="#1a1818"/>
        <path id="Path_10" data-name="Path 10" d="M268.9,263.782c-.007-15.679,11.2-22.2,18.734-22.756l.089,1.2a19.389,19.389,0,0,0-11.076,5.009c-4.286,3.931-6.55,9.654-6.547,16.55Z" transform="translate(-175.487 -157.299)" fill="#1a1818"/>
        <path id="Path_11" data-name="Path 11" d="M232.554,261.055a21.347,21.347,0,0,0-6.968-15.78c-4.224-3.8-9.241-5.257-12.337-5.019l-.093-1.2c3.355-.263,8.745,1.286,13.233,5.323a22.521,22.521,0,0,1,7.365,16.638Z" transform="translate(-139.11 -155.997)" fill="#1a1818"/>
        <path id="Path_12" data-name="Path 12" d="M106.318,222.755c10.881,7.194,23.428,17.419,37.159.047-13.731-17.374-26.278-7.247-37.159-.047" transform="translate(-69.386 -139.141)" fill="#fff"/>
        <rect id="Rectangle_3" data-name="Rectangle 3" width="1.006" height="5.781" transform="matrix(0.714, -0.7, 0.7, 0.714, 138.673, 84.762)" fill="#1a1818"/>
        <rect id="Rectangle_4" data-name="Rectangle 4" width="1.007" height="8.588" transform="translate(132.59 84.842) rotate(-41.435)" fill="#1a1818"/>
        <rect id="Rectangle_5" data-name="Rectangle 5" width="1.007" height="11.189" transform="translate(126.434 84.739) rotate(-40.1)" fill="#1a1818"/>
        <rect id="Rectangle_6" data-name="Rectangle 6" width="1.006" height="11.999" transform="matrix(0.793, -0.609, 0.609, 0.793, 120.541, 84.625)" fill="#1a1818"/>
        <rect id="Rectangle_7" data-name="Rectangle 7" width="1.006" height="9.15" transform="matrix(0.83, -0.558, 0.558, 0.83, 115.225, 84.695)" fill="#1a1818"/>
        <rect id="Rectangle_8" data-name="Rectangle 8" width="5.78" height="1.006" transform="translate(138.673 83.987) rotate(-45.546)" fill="#1a1818"/>
        <rect id="Rectangle_9" data-name="Rectangle 9" width="8.587" height="1.007" transform="translate(132.59 83.906) rotate(-48.554)" fill="#1a1818"/>
        <rect id="Rectangle_10" data-name="Rectangle 10" width="11.186" height="1.007" transform="translate(126.434 84.011) rotate(-49.899)" fill="#1a1818"/>
        <rect id="Rectangle_11" data-name="Rectangle 11" width="12.001" height="1.006" transform="translate(120.54 84.127) rotate(-52.502)" fill="#1a1818"/>
        <rect id="Rectangle_12" data-name="Rectangle 12" width="9.15" height="1.006" transform="matrix(0.558, -0.83, 0.83, 0.558, 115.225, 84.054)" fill="#1a1818"/>
        <rect id="Rectangle_13" data-name="Rectangle 13" width="37.088" height="1.007" transform="translate(37.004 83.157)" fill="#1a1818"/>
        <rect id="Rectangle_14" data-name="Rectangle 14" width="1.007" height="5.779" transform="translate(42.843 79.795) rotate(-44.435)" fill="#1a1818"/>
        <rect id="Rectangle_15" data-name="Rectangle 15" width="1.007" height="8.587" transform="matrix(0.75, -0.662, 0.662, 0.75, 47.255, 77.367)" fill="#1a1818"/>
        <rect id="Rectangle_16" data-name="Rectangle 16" width="1.007" height="11.187" transform="matrix(0.765, -0.644, 0.644, 0.765, 51.87, 75.338)" fill="#1a1818"/>
        <rect id="Rectangle_17" data-name="Rectangle 17" width="1.007" height="12" transform="translate(57.635 74.449) rotate(-37.484)" fill="#1a1818"/>
        <rect id="Rectangle_18" data-name="Rectangle 18" width="1.007" height="9.153" transform="translate(65.11 76.254) rotate(-33.914)" fill="#1a1818"/>
        <rect id="Rectangle_19" data-name="Rectangle 19" width="5.777" height="1.006" transform="matrix(0.7, -0.714, 0.714, 0.7, 42.841, 87.42)" fill="#1a1818"/>
        <rect id="Rectangle_20" data-name="Rectangle 20" width="8.587" height="1.007" transform="matrix(0.662, -0.75, 0.75, 0.662, 47.252, 89.849)" fill="#1a1818"/>
        <rect id="Rectangle_21" data-name="Rectangle 21" width="11.187" height="1.007" transform="translate(51.868 91.882) rotate(-49.899)" fill="#1a1818"/>
        <rect id="Rectangle_22" data-name="Rectangle 22" width="11.998" height="1.007" transform="matrix(0.609, -0.793, 0.793, 0.609, 57.632, 92.766)" fill="#1a1818"/>
        <rect id="Rectangle_23" data-name="Rectangle 23" width="9.147" height="1.006" transform="matrix(0.558, -0.83, 0.83, 0.558, 65.108, 90.958)" fill="#1a1818"/>
        <path id="Path_13" data-name="Path 13" d="M125.614,231.922a17.206,17.206,0,0,1-2.4-.171c-5.978-.842-11.491-4.549-16.822-8.133-.7-.469-1.389-.934-2.073-1.387l-.635-.42.635-.42c.653-.432,1.311-.874,1.976-1.321,5.344-3.59,10.87-7.3,16.865-8.142,6.9-.968,13.11,2.178,18.99,9.618l.247.312-.247.312c-5.171,6.542-10.6,9.752-16.531,9.752M105.5,221.811q.72.48,1.448.971c10.165,6.834,21.675,14.573,34.157-.924-12.522-15.549-24.065-7.8-34.256-.952q-.679.456-1.35.9" transform="translate(-67.663 -138.198)" fill="#1a1818"/>
        <path id="Path_14" data-name="Path 14" d="M252.966,109.719c-7.2,10.883-17.42,23.426-.048,37.158,17.373-13.732,7.247-26.275.048-37.158" transform="translate(-158.819 -71.605)" fill="#fff"/>
        <rect id="Rectangle_24" data-name="Rectangle 24" width="5.783" height="1.007" transform="translate(93.836 48.072) rotate(-44.469)" fill="#1a1818"/>
        <rect id="Rectangle_25" data-name="Rectangle 25" width="8.585" height="1.007" transform="matrix(0.75, -0.662, 0.662, 0.75, 93.955, 54.115)" fill="#1a1818"/>
        <rect id="Rectangle_26" data-name="Rectangle 26" width="11.187" height="1.007" transform="translate(93.866 60.256) rotate(-40.102)" fill="#1a1818"/>
        <rect id="Rectangle_27" data-name="Rectangle 27" width="12" height="1.007" transform="translate(93.791 66.122) rotate(-37.515)" fill="#1a1818"/>
        <rect id="Rectangle_28" data-name="Rectangle 28" width="9.148" height="1.007" transform="translate(93.914 71.399) rotate(-33.915)" fill="#1a1818"/>
        <rect id="Rectangle_29" data-name="Rectangle 29" width="1.007" height="5.783" transform="translate(89.639 44.739) rotate(-45.528)" fill="#1a1818"/>
        <rect id="Rectangle_30" data-name="Rectangle 30" width="1.007" height="8.586" transform="translate(87.249 49.188) rotate(-48.564)" fill="#1a1818"/>
        <rect id="Rectangle_31" data-name="Rectangle 31" width="1.007" height="11.187" transform="matrix(0.644, -0.765, 0.765, 0.644, 85.234, 53.819)" fill="#1a1818"/>
        <rect id="Rectangle_32" data-name="Rectangle 32" width="1.007" height="12" transform="matrix(0.609, -0.793, 0.793, 0.609, 84.387, 59.613)" fill="#1a1818"/>
        <rect id="Rectangle_33" data-name="Rectangle 33" width="1.007" height="9.15" transform="matrix(0.558, -0.83, 0.83, 0.558, 86.24, 67.131)" fill="#1a1818"/>
        <rect id="Rectangle_34" data-name="Rectangle 34" width="1.007" height="37.091" transform="translate(93.602 38.181)" fill="#1a1818"/>
        <path id="Path_15" data-name="Path 15" d="M251.992,145.8l-.312-.247c-7.418-5.863-10.552-12.056-9.582-18.936.843-5.978,4.552-11.493,8.138-16.825.468-.7.932-1.387,1.385-2.07l.42-.635.42.635q.65.983,1.325,1.984c3.588,5.344,7.3,10.87,8.136,16.862.965,6.9-2.181,13.106-9.618,18.985Zm.049-36.891q-.479.718-.969,1.445c-6.837,10.165-14.58,21.677.921,34.16,15.544-12.519,7.8-24.058.958-34.247q-.459-.683-.909-1.358" transform="translate(-157.886 -69.89)" fill="#1a1818"/>
        <rect id="Rectangle_35" data-name="Rectangle 35" width="3.056" height="16.688" transform="translate(47.515 20.338) rotate(-29.989)" fill="#1a1818"/>
        <path id="Path_16" data-name="Path 16" d="M162.192,54.1l2.793-1.241-5.6-12.582,4.424-1.969-1.189-2.666-11.638,5.181,1.187,2.671,4.426-1.971Z" transform="translate(-98.533 -23.264)" fill="#1a1818"/>
        <path id="Path_17" data-name="Path 17" d="M241.717,38.013l3.052-.108-.359-10.313,4.442,4.351,4.134-4.649.36,10.311,3.05-.105L255.8,20.481l-7.075,7.728-7.6-7.22Z" transform="translate(-157.363 -13.366)" fill="#1a1818"/>
        <rect id="Rectangle_36" data-name="Rectangle 36" width="16.691" height="3.053" transform="translate(101.742 24.649) rotate(-84.951)" fill="#1a1818"/>
        <path id="Path_18" data-name="Path 18" d="M323.439,45.456l4.12-16.527L324.6,28.19l-2.478,9.938-7.786-12.847-4.119,16.527,2.964.736,2.476-9.935Z" transform="translate(-202.452 -16.499)" fill="#1a1818"/>
        <path id="Path_19" data-name="Path 19" d="M366.743,61.2a10.613,10.613,0,0,0,5.127,6.685c3.615,2,8.07,1.848,9.909-1.468,3.676-6.63-8.487-8.683-6.5-12.27.528-.957,2.086-1.636,4.5-.3a6.5,6.5,0,0,1,3.226,4.247l3.232-.734a9.6,9.6,0,0,0-4.929-5.918c-3.594-1.992-7.6-1.686-9.177,1.154-3.605,6.5,8.461,8.725,6.5,12.268-.85,1.533-2.866,1.5-5.092.3a7.32,7.32,0,0,1-3.473-4.749Z" transform="translate(-239.345 -32.742)" fill="#1a1818"/>
        <path id="Path_20" data-name="Path 20" d="M403.977,96.427l1.963,1.962,4.57-4.564,4.857,4.854-4.569,4.567,1.96,1.964,10.73-10.73-1.963-1.959L417.243,96.8l-4.853-4.855,4.28-4.286L414.705,85.7l-4.281,4.279-1.268-1.272-1.878,1.882,1.267,1.269Z" transform="translate(-263.645 -55.931)" fill="#1a1818"/>
        <path id="Path_21" data-name="Path 21" d="M444.806,129.111a5.148,5.148,0,1,1-.834,7.3,5.252,5.252,0,0,1,.834-7.3m-1.836-2.265a8.065,8.065,0,1,0,11.212,1.294,7.894,7.894,0,0,0-11.212-1.294" transform="translate(-287.183 -81.629)" fill="#1a1818"/>
        <path id="Path_22" data-name="Path 22" d="M471.25,169.862l1.825,3.741c.861,1.766.194,3.074-1.033,3.676a2.52,2.52,0,0,1-3.527-1.447l-1.825-3.744Zm-12.466,2.994L460,175.349l4.3-2.1,1.921,3.938a5.2,5.2,0,1,0,9.333-4.552L472.42,166.2l-6.948,3.386-.789-1.611-2.387,1.165.786,1.614Z" transform="translate(-299.413 -108.468)" fill="#1a1818"/>
        <path id="Path_23" data-name="Path 23" d="M200.342,40.949l.8-6.4L205,39.7ZM196.429,48.1l3.154-.846.409-3.352,6.764-1.813,2.032,2.7,3.177-.851L200.881,29.629l-4.025,1.079.716,2.671,1.075-.288Z" transform="translate(-128.194 -19.337)" fill="#1a1818"/>
        <path id="Path_24" data-name="Path 24" d="M50.353,182.755l.724-2.1-9.47-3.258,1.148-3.333-2.007-.69-3.018,8.762,2.007.69,1.149-3.329Z" transform="translate(-24.624 -113.147)" fill="#1a1818"/>
        <path id="Path_25" data-name="Path 25" d="M59.328,156.108l1.044-1.963-4.565-2.425,2.579-4.853,4.565,2.428,1.041-1.961-10.717-5.7-1.04,1.961,4.275,2.273-2.577,4.854-4.279-2.274-1.045,1.959,4.279,2.276-.674,1.267,1.875,1,.676-1.267Z" transform="translate(-31.724 -92.435)" fill="#1a1818"/>
        <path id="Path_26" data-name="Path 26" d="M77.713,125.021l6.057-6.962-1.606-1.394-4.6,5.289-2.3-2,3.2-3.681-1.606-1.4-3.2,3.684-2.052-1.785,4.6-5.286-1.6-1.4-6.057,6.969,3.659,3.178-.943,1.079,1.6,1.4.942-1.084Z" transform="translate(-44.738 -71.849)" fill="#1a1818"/>
        <path id="Path_27" data-name="Path 27" d="M111.238,81.007l-5.96-21.137-2.868,2.32,4.07,12.957L94.652,68.475,91.8,70.781Z" transform="translate(-59.912 -39.073)" fill="#1a1818"/>
        <rect id="Rectangle_37" data-name="Rectangle 37" width="1.82" height="27.277" transform="translate(93.106 104.077)" fill="#fff"/>
        <path id="Path_28" data-name="Path 28" d="M238.564,384.692c0-2.161,2.123-3.905,4.742-3.905s4.742,1.744,4.742,3.905-2.124,3.912-4.742,3.912-4.742-1.749-4.742-3.912" transform="translate(-155.692 -248.51)" fill="#fff"/>
        <path id="Path_29" data-name="Path 29" d="M242.36,388.16c-2.892,0-5.245-1.98-5.245-4.415s2.353-4.409,5.245-4.409,5.246,1.978,5.246,4.409-2.353,4.415-5.246,4.415m0-7.817c-2.337,0-4.238,1.526-4.238,3.4s1.9,3.408,4.238,3.408,4.239-1.528,4.239-3.408-1.9-3.4-4.239-3.4" transform="translate(-154.747 -247.563)" fill="#1a1818"/>
        <path id="Path_30" data-name="Path 30" d="M196.434,364.578c-4.622-6.162-.423-9.565,3.083-11.754l7.955-4.972c3.921-2.45,8.005-2.985,9.128-1.192.1.158,2.153,4.069,2.332,4.249Z" transform="translate(-126.867 -225.546)" fill="#fff"/>
        <path id="Path_31" data-name="Path 31" d="M195.491,364.151a.5.5,0,0,1-.4-.2c-1.722-2.3-2.409-4.454-2.043-6.415.518-2.775,2.951-4.624,5.262-6.068l7.955-4.972c4.219-2.637,8.533-3.09,9.821-1.032.034.056.127.228.478.886.487.912,1.622,3.037,1.809,3.3a.5.5,0,0,1-.12.758l-22.5,13.669a.5.5,0,0,1-.261.073m17.586-18.987a12.7,12.7,0,0,0-6.282,2.184l-7.955,4.972c-2.126,1.328-4.36,3.007-4.806,5.4-.294,1.572.242,3.339,1.591,5.257l21.669-13.165c-.26-.456-.728-1.315-1.621-2.989-.238-.446-.412-.773-.448-.833a2.429,2.429,0,0,0-2.148-.825" transform="translate(-125.923 -224.616)" fill="#1a1818"/>
        <path id="Path_32" data-name="Path 32" d="M277.208,403.948c0-2.428,2.444-4.4,5.454-4.4s5.454,1.969,5.454,4.4-2.441,4.4-5.454,4.4-5.454-1.969-5.454-4.4" transform="translate(-180.912 -260.756)" fill="#fff"/>
        <path id="Path_33" data-name="Path 33" d="M281.948,408.018c-3.217,0-5.834-2.146-5.834-4.784s2.617-4.777,5.834-4.777,5.834,2.143,5.834,4.777-2.617,4.784-5.834,4.784m0-8.8c-2.8,0-5.074,1.8-5.074,4.016s2.276,4.024,5.074,4.024,5.074-1.805,5.074-4.024-2.276-4.016-5.074-4.016" transform="translate(-180.198 -260.042)" fill="#1a1818"/>
        <path id="Path_34" data-name="Path 34" d="M205.64,364.847l7.954-4.967c3.92-2.453,8.007-2.985,9.128-1.2s-1.154,5.233-5.076,7.682l-7.953,4.972c-3.923,2.45-8.008,2.985-9.129,1.2s1.155-5.232,5.076-7.682" transform="translate(-130.707 -233.394)" fill="#fff"/>
        <path id="Path_35" data-name="Path 35" d="M202.206,373.148a3.342,3.342,0,0,1-3-1.285c-1.283-2.061,1.017-5.74,5.235-8.377h0l7.954-4.967c4.216-2.638,8.53-3.1,9.821-1.04s-1.018,5.743-5.235,8.377l-7.953,4.972a13.717,13.717,0,0,1-6.82,2.321m2.767-8.809h0c-3.99,2.494-5.763,5.628-4.915,6.99s4.443,1.137,8.435-1.356L216.445,365c3.989-2.491,5.761-5.626,4.915-6.99-.834-1.328-4.5-1.1-8.433,1.361Z" transform="translate(-129.773 -232.46)" fill="#1a1818"/>
        <path id="Path_36" data-name="Path 36" d="M304.7,377.616c.131.135,1.591,3.74,1.657,3.915.688,1.7-2.155,4.45-6.352,6.145s-8.154,1.689-8.841-.009c-.065-.166-1.659-3.732-1.659-3.91Z" transform="translate(-188.936 -246.441)" fill="#fff"/>
        <path id="Path_37" data-name="Path 37" d="M293.354,388.34c-1.839,0-3.174-.537-3.6-1.6-.021-.052-.124-.286-.27-.616-1.427-3.243-1.427-3.323-1.427-3.484v-.34l15.825-6.395.235.244c.252.26,1.753,4.049,1.766,4.087.411,1.014-.108,2.3-1.465,3.614a18.32,18.32,0,0,1-11.06,4.49m-4.159-5.415c.292.714.931,2.165,1.207,2.793.157.357.267.607.283.649.5,1.228,3.982,1.422,8.185-.274a15.45,15.45,0,0,0,4.846-2.966c1.012-.979,1.471-1.922,1.228-2.523-.093-.244-1.028-2.541-1.436-3.462Z" transform="translate(-187.99 -245.325)" fill="#1a1818"/>
        <path id="Path_38" data-name="Path 38" d="M289.31,381.356c-.687-1.7,2.159-4.456,6.353-6.15s8.155-1.691,8.842.009-2.157,4.445-6.353,6.146-8.154,1.694-8.843,0" transform="translate(-188.743 -244.04)" fill="#fff"/>
        <path id="Path_39" data-name="Path 39" d="M291.5,382.178c-1.837,0-3.171-.536-3.6-1.6h0c-.815-2.023,2.036-4.949,6.631-6.805s8.681-1.734,9.5.287-2.035,4.938-6.63,6.8a16.368,16.368,0,0,1-5.9,1.315m-2.668-1.975c.5,1.232,3.985,1.423,8.188-.273s6.572-4.26,6.075-5.49-3.984-1.429-8.187.269-6.573,4.257-6.075,5.494" transform="translate(-187.798 -243.076)" fill="#1a1818"/>
        <path id="Path_40" data-name="Path 40" d="M277.269,357.719c5.11,4.1,3.093,7.529.573,9.309l-6.281,4.859c-1.844,1.394-5.569,5.692-10.817,3.084A35.423,35.423,0,0,1,258.018,370s18.911-12.546,19.251-12.276" transform="translate(-168.388 -233.453)" fill="#fff"/>
        <path id="Path_41" data-name="Path 41" d="M262.915,375.353a7.8,7.8,0,0,1-3.505-.869c-.652-.322-2.97-5.234-2.984-5.279l-.109-.359.313-.207c.047-.032,4.784-3.174,9.5-6.242,9.845-6.4,9.95-6.319,10.341-6.009h0c2.286,1.832,3.416,3.719,3.359,5.607a6.065,6.065,0,0,1-2.811,4.505l-6.263,4.846c-.245.186-.522.421-.843.7-1.472,1.255-3.884,3.311-7,3.311m-3-1.743c4.2,2.05,7.3-.586,9.347-2.334.333-.284.621-.529.885-.729l6.276-4.856a5.118,5.118,0,0,0,2.4-3.726c.046-1.5-.886-3.053-2.769-4.618-1.685.837-11.691,7.369-18.521,11.9a45.457,45.457,0,0,0,2.379,4.366m-.059-.029h0" transform="translate(-167.278 -232.515)" fill="#1a1818"/>
        <path id="Path_42" data-name="Path 42" d="M260.078,363.687l11.809-8.9a3.7,3.7,0,1,1,4.414,5.856l-11.8,8.9a3.7,3.7,0,1,1-4.418-5.861" transform="translate(-168.559 -230.933)" fill="#fff"/>
        <path id="Path_43" data-name="Path 43" d="M260.834,370.038a4.471,4.471,0,0,1-.63-.044,3.843,3.843,0,0,1-3.333-4.425,4.966,4.966,0,0,1,1.957-3.231l11.809-8.9a4.971,4.971,0,0,1,3.352-1.025,3.849,3.849,0,0,1,3.627,4.467,4.955,4.955,0,0,1-1.96,3.22l-11.8,8.9a5.064,5.064,0,0,1-3.019,1.035m12.816-16.628a4.013,4.013,0,0,0-2.406.835l-11.809,8.9a3.953,3.953,0,0,0-1.566,2.566A2.838,2.838,0,0,0,260.347,369a3.96,3.96,0,0,0,2.9-.8l11.8-8.9a3.941,3.941,0,0,0,1.568-2.556,2.845,2.845,0,0,0-2.7-3.322c-.089-.006-.178-.01-.266-.01" transform="translate(-167.614 -229.987)" fill="#1a1818"/>
        <path id="Path_44" data-name="Path 44" d="M218.641,389.713l13.008,5.256c4.907,1.132,6.836,5.425,5.694,8.253s-5.544,3.713-9.83,1.982l-13.007-5.256c-5.981-2.4-6.838-5.425-5.692-8.258s4.6-4.958,9.826-1.978" transform="translate(-135.993 -253.396)" fill="#fff"/>
        <path id="Path_45" data-name="Path 45" d="M244.349,412.37c-.646-.242-1.362-.485-2.054-.72a19.108,19.108,0,0,1-4.8-2.062c-3.277-2.515-2.039-5.559-1.444-7.022a5.574,5.574,0,0,1,3.16-3.313c1.76-.655,3.94-.331,6.479.963,1.474.46,3.127.965,3.323,1l-.075.373v.627a28.854,28.854,0,0,1-3.588-1.057l-.079-.033c-2.294-1.176-4.214-1.49-5.707-.934a4.673,4.673,0,0,0-2.579,2.747c-.782,1.922-1.338,3.956,1.124,5.845a19.167,19.167,0,0,0,4.517,1.908c.7.237,1.421.483,2.083.73Z" transform="translate(-153.572 -260.347)" fill="#1a1818"/>
        <path id="Path_46" data-name="Path 46" d="M230.892,405.641a12.155,12.155,0,0,1-4.511-.912l-13.007-5.256c-3.224-1.294-5.262-2.895-6.055-4.759a5.266,5.266,0,0,1,.085-4.155,5.906,5.906,0,0,1,3.508-3.4c1.409-.489,3.765-.685,7,1.151l12.941,5.229a8.264,8.264,0,0,1,5.622,4.118,5.772,5.772,0,0,1,.387,4.8c-.824,2.039-3.167,3.173-5.975,3.173m-17.918-17.806a5.247,5.247,0,0,0-1.73.281,4.834,4.834,0,0,0-2.906,2.821,4.241,4.241,0,0,0-.092,3.383c.685,1.609,2.537,3.028,5.5,4.219l13.008,5.256c4.023,1.625,8.139.86,9.175-1.7a4.772,4.772,0,0,0-.345-3.963,7.285,7.285,0,0,0-5-3.611l-.075-.024-13.069-5.286a9.213,9.213,0,0,0-4.474-1.373" transform="translate(-135.049 -252.454)" fill="#1a1818"/>
        <path id="Path_47" data-name="Path 47" d="M307.439,403.511c.078.121,1.744,3.424,1.805,3.559,1.025,2.2-.757,5.205-3.982,6.711s-6.681.94-7.706-1.263c-.114-.243-1.76-3.3-1.809-3.556Z" transform="translate(-193.011 -263.34)" fill="#fff"/>
        <path id="Path_48" data-name="Path 48" d="M300.578,413.925a7.069,7.069,0,0,1-1.148-.091,4.316,4.316,0,0,1-3.4-2.307c-.031-.068-.189-.366-.4-.761a22.705,22.705,0,0,1-1.449-2.911l-.075-.386,12.445-5.8.238.367c.12.184,1.83,3.6,1.842,3.625,1.138,2.444-.758,5.755-4.228,7.375a9.156,9.156,0,0,1-3.828.892m-5.241-5.918c.293.595.87,1.69,1.186,2.29.22.417.385.732.419.8a3.346,3.346,0,0,0,2.651,1.739,7.653,7.653,0,0,0,4.387-.719c2.967-1.386,4.644-4.1,3.739-6.043-.067-.143-1.112-2.216-1.572-3.112Z" transform="translate(-191.942 -262.136)" fill="#1a1818"/>
        <path id="Path_49" data-name="Path 49" d="M299.188,398.295c3.231-1.51,6.679-.944,7.707,1.26s-.759,5.2-3.986,6.715-6.678.936-7.706-1.263.758-5.21,3.985-6.711" transform="translate(-192.467 -259.384)" fill="#fff"/>
        <path id="Path_50" data-name="Path 50" d="M298.365,406.662c-2.079,0-3.845-.839-4.568-2.386a4.322,4.322,0,0,1,.421-4.089,8.639,8.639,0,0,1,3.808-3.292,8.135,8.135,0,0,1,6.028-.532A3.992,3.992,0,0,1,306.4,398.4c1.14,2.446-.757,5.758-4.229,7.383a9.107,9.107,0,0,1-3.807.88m3.5-9.654a8.171,8.171,0,0,0-3.412.8h0a7.625,7.625,0,0,0-3.367,2.893,3.353,3.353,0,0,0-.375,3.149c.909,1.945,4.066,2.4,7.037,1.019s4.648-4.1,3.742-6.045a3.007,3.007,0,0,0-1.779-1.514,5.41,5.41,0,0,0-1.846-.3" transform="translate(-191.517 -258.441)" fill="#1a1818"/>
        <path id="Path_51" data-name="Path 51" d="M199.693,300.559c-13.444,0-29.358-2.825-38.865-6.687-32.7-13.284-52.272-6.886-71.059,1.467l-.487-1.1c19.033-8.462,38.861-14.942,72-1.482,13.353,5.424,39.481,8.785,53.154,4.991l.321,1.156a58.431,58.431,0,0,1-15.062,1.652" transform="translate(-58.267 -186.011)" fill="#1a1818"/>
        <path id="Path_52" data-name="Path 52" d="M148.745,214.086a65.334,65.334,0,1,1,65.33-65.333,65.406,65.406,0,0,1-65.33,65.333m0-129.467a64.134,64.134,0,1,0,64.13,64.134,64.205,64.205,0,0,0-64.13-64.134" transform="translate(-54.438 -54.441)" fill="#fff"/>
        <path id="Path_53" data-name="Path 53" d="M198.841,337.5l.63-1.977-4.745-1.512a2.425,2.425,0,0,1-.644-.314,1.707,1.707,0,0,1-.67-1.828c.3-.939,1.232-1.132,2.352-.775l4.647,1.48.629-1.977-4.811-1.532a2.256,2.256,0,0,1-.644-.314,1.622,1.622,0,0,1-.619-1.758c.309-.972,1.247-1.181,2.582-.757l4.432,1.412.63-1.977-4.729-1.506c-2.571-.819-3.907.244-4.327,1.562a2.922,2.922,0,0,0-.047,1.8,3.318,3.318,0,0,0,.7,1.292l-.01.033A2.428,2.428,0,0,0,192,330.6a2.87,2.87,0,0,0,.58,2.907l-.016.049-1.218-.279-.551,1.73c.7.187,1.488.4,2.41.695Zm-4.364,5.724c-.569,1.127-2.031,1.3-3.482.565-1.25-.632-2.289-1.835-1.61-3.177.655-1.3,2.278-1.135,3.451-.542,1.528.772,2.2,2.059,1.65,3.139Zm1.358.725a4.168,4.168,0,0,0-2.056-5.863,4.04,4.04,0,0,0-5.746,1.785,4.158,4.158,0,0,0,2.017,5.9,4.071,4.071,0,0,0,5.777-1.808Zm-4.783,4.521a4.225,4.225,0,0,1-.639,1.585,2.728,2.728,0,0,1-4.567-2.969A3.508,3.508,0,0,1,187,345.916l-1.141-1.2a5.666,5.666,0,0,0-1.441,1.518,4.341,4.341,0,0,0,1.2,6.37,4.058,4.058,0,0,0,5.976-1.292,6.156,6.156,0,0,0,.938-2.236Zm-3.956,9.218a1.3,1.3,0,1,0-.01.013Zm-9.9,3.726a2.817,2.817,0,0,1-.343-.418,2.016,2.016,0,0,1,.171-2.476c.937-.994,2.316-.693,3.4.327,1.208,1.138,1.481,2.488.556,3.47a1.944,1.944,0,0,1-2.375.352,3.294,3.294,0,0,1-.463-.365Zm4.545,7.2,1.459-1.548-3.172-2.988.024-.025a2.767,2.767,0,0,0,2.443-.953c1.316-1.4,1.563-3.8-.652-5.889-1.913-1.8-4.224-1.77-5.552-.361a3.28,3.28,0,0,0-.9,3.122l-.024.025-1.015-.814-1.281,1.359c.6.52,1.281,1.112,2.086,1.871Zm-8.637,1.236c-.969.809-2.38.388-3.422-.859-.9-1.075-1.376-2.591-.222-3.555,1.114-.932,2.541-.141,3.384.868,1.1,1.314,1.2,2.759.273,3.536Zm.96,1.2a4.168,4.168,0,0,0,.432-6.2,4.04,4.04,0,0,0-5.983-.634,4.158,4.158,0,0,0-.483,6.218,4.071,4.071,0,0,0,6.021.625Zm-12.088,8.2,1.8-1.138-2.7-4.266a1.911,1.911,0,0,1-.27-.587,1.775,1.775,0,0,1,.764-1.9c.993-.629,1.873-.081,2.521.942l2.535,4,1.8-1.138-2.655-4.193c-1.443-2.279-3.223-2.278-4.436-1.51a3,3,0,0,0-1.038,1.108,2.8,2.8,0,0,0-.382,1.368l-.029.018-2.683-4.237-1.8,1.138Zm-9.586,4.073a6.944,6.944,0,0,0,3.17-.7c2.7-1.284,3.293-3.345,2.484-5.047-.712-1.5-2.025-2.005-4.186-1.84-1.658.137-2.445.051-2.831-.761-.3-.625-.085-1.51,1.133-2.089a5.088,5.088,0,0,1,2.346-.5l-.289-1.777a6.34,6.34,0,0,0-2.76.679c-2.3,1.091-3.117,3.07-2.294,4.8.712,1.5,2.267,1.91,4.305,1.688,1.558-.147,2.311.07,2.69.866.408.859,0,1.763-1.223,2.342a5.835,5.835,0,0,1-2.865.538Zm-9.657,3.894,2.019-.67-1.565-4.71a1.982,1.982,0,0,1-.114-.673,1.785,1.785,0,0,1,1.183-1.7c1.1-.365,1.815.363,2.2,1.512l1.5,4.513,2.018-.671-1.575-4.742c-.84-2.527-2.584-2.95-3.978-2.487a3.092,3.092,0,0,0-2.1,2.229l-.049.016-.5-1.166-1.756.584c.262.678.551,1.439.856,2.358Zm-6.347-8.477a1.191,1.191,0,1,0-.017,0Zm3.142,9.166-1.847-8.216-2.075.467,1.847,8.216Zm-17.6,2.424,2.066-.2-.473-4.958a2.426,2.426,0,0,1,.036-.716,1.707,1.707,0,0,1,1.419-1.334c.981-.094,1.525.688,1.636,1.859l.463,4.854,2.066-.2-.48-5.026a2.256,2.256,0,0,1,.036-.716,1.621,1.621,0,0,1,1.373-1.26c1.015-.1,1.576.683,1.709,2.078l.442,4.63,2.066-.2-.472-4.94c-.256-2.686-1.758-3.5-3.135-3.366a2.922,2.922,0,0,0-1.674.663,3.321,3.321,0,0,0-.915,1.147l-.034,0a2.427,2.427,0,0,0-2.472-1.327,2.868,2.868,0,0,0-2.446,1.675l-.052,0-.222-1.229-1.807.173c.1.72.215,1.525.307,2.489Zm-5.194-3.27a1.428,1.428,0,0,1-.078.463,1.746,1.746,0,0,1-1.741,1.061,1.117,1.117,0,0,1-1.139-1.278c.073-1.278,1.524-1.506,3.025-1.4Zm2.191-1.97c.106-1.847-.573-3.6-3.266-3.755a6.066,6.066,0,0,0-3.081.568l.336,1.4a4.459,4.459,0,0,1,2.3-.492c1.485.085,1.657,1.013,1.625,1.565l-.008.138c-3.107-.2-5.051.785-5.171,2.891a2.5,2.5,0,0,0,2.5,2.654,3.078,3.078,0,0,0,2.55-.98l.052,0,.1.941,1.916.11a11.36,11.36,0,0,1-.023-2.028Zm-11.866-6.165-.248,1.554-1.178-.188-.251,1.571,1.178.188-.622,3.893a3.317,3.317,0,0,0,.292,2.445,2.435,2.435,0,0,0,1.7.972,4.669,4.669,0,0,0,1.555.02l.22-1.593a2.761,2.761,0,0,1-.833-.046c-.8-.128-.994-.684-.83-1.709l.584-3.654,2,.319.251-1.571-2-.319.341-2.134Zm-4-.472a1.186,1.186,0,1,0-.017,0Zm-1.083,9.629,1.847-8.216-2.075-.466L99.9,387.617ZM94.339,386l7.5-9.79-2.15-.714-3.288,4.52c-.874,1.2-1.731,2.413-2.463,3.628l-.033-.011c.163-1.422.216-2.844.253-4.38l.164-5.539-2.2-.731-.1,12.249Zm-14.782-6.3,1.91.936,2.184-4.457a1.973,1.973,0,0,1,.39-.56,1.784,1.784,0,0,1,2.038-.387c1.04.51,1.041,1.531.508,2.617l-2.093,4.27,1.91.936,2.2-4.487c1.172-2.391.224-3.915-1.1-4.562a3.091,3.091,0,0,0-3.061.117l-.047-.023.462-1.179-1.661-.814c-.289.667-.615,1.412-1.041,2.282Zm-2.913-5.283a1.433,1.433,0,0,1-.3.363,1.746,1.746,0,0,1-2.038.057,1.116,1.116,0,0,1-.355-1.675c.7-1.073,2.07-.551,3.322.283Zm2.88-.623c1.009-1.551,1.289-3.411-.972-4.881a6.066,6.066,0,0,0-2.957-1.035l-.406,1.386a4.46,4.46,0,0,1,2.239.713c1.247.811.936,1.7.634,2.166l-.075.116c-2.6-1.711-4.774-1.825-5.924-.057a2.5,2.5,0,0,0,.851,3.544,3.078,3.078,0,0,0,2.7.415l.043.029-.379.868,1.609,1.046a11.364,11.364,0,0,1,.987-1.772Zm-5.639-9.536a1.187,1.187,0,1,0-.014-.011Zm-5.173,8.193,5.245-6.589-1.664-1.325-5.244,6.589Zm-3.195-7.471a2.373,2.373,0,0,1-.482.4,1.876,1.876,0,0,1-2.364-.19c-.971-.936-.737-2.274.343-3.393s2.468-1.463,3.452-.514a1.866,1.866,0,0,1,.287,2.343,3.224,3.224,0,0,1-.359.447Zm6-6.222L68.206,362.2l-.025-.024a2.674,2.674,0,0,0-.948-2.429c-1.456-1.4-3.89-1.422-5.835.618-1.8,1.867-1.845,4.2-.389,5.608a3.022,3.022,0,0,0,3.023.8l.025.024-.85,1.03,1.356,1.309c.371-.435.995-1.131,1.6-1.753l6.892-7.143Zm-13.768-.974a1.427,1.427,0,0,1-.395.255,1.745,1.745,0,0,1-1.958-.567,1.116,1.116,0,0,1,.173-1.7c.992-.809,2.14.107,3.078,1.284Zm2.933.286c1.434-1.17,2.269-2.855.563-4.945a6.061,6.061,0,0,0-2.5-1.889l-.81,1.2a4.46,4.46,0,0,1,1.914,1.362c.94,1.152.372,1.906-.057,2.255l-.107.088c-1.954-2.423-3.99-3.2-5.624-1.862a2.5,2.5,0,0,0-.271,3.635,3.078,3.078,0,0,0,2.445,1.219l.033.04-.625.711,1.213,1.487a11.316,11.316,0,0,1,1.481-1.386ZM46.668,347.1l1.138,1.8L52,346.238a1.972,1.972,0,0,1,.625-.273,1.785,1.785,0,0,1,1.94.736c.62.979.086,1.849-.937,2.5l-4.018,2.544,1.138,1.8,4.222-2.674c2.25-1.425,2.239-3.219,1.453-4.461a3.092,3.092,0,0,0-2.67-1.5l-.028-.044,1.011-.763-.99-1.563c-.6.418-1.263.882-2.081,1.4Zm.3-6.039a1.432,1.432,0,0,1-.444.154,1.746,1.746,0,0,1-1.766-1.018,1.116,1.116,0,0,1,.574-1.613c1.156-.549,2.053.614,2.683,1.98Zm2.78.976c1.671-.794,2.884-2.231,1.726-4.668a6.061,6.061,0,0,0-1.978-2.43l-1.071.969a4.46,4.46,0,0,1,1.534,1.779c.638,1.343-.093,1.939-.593,2.177l-.125.059c-1.32-2.819-3.113-4.054-5.018-3.148a2.5,2.5,0,0,0-1.13,3.465A3.077,3.077,0,0,0,45.183,342l.022.047-.777.542.824,1.733a11.359,11.359,0,0,1,1.768-.993Zm-6.507-7.1a6.456,6.456,0,0,1-1.124-2.068c-.812-2.445.262-4.369,2.69-5.176,2.659-.883,4.61.273,5.357,2.521a5.724,5.724,0,0,1,.293,2.308l1.75-.108a6.669,6.669,0,0,0-.413-2.833,5.862,5.862,0,0,0-7.794-3.989c-3.364,1.117-4.854,3.982-3.688,7.493a7.713,7.713,0,0,0,1.446,2.709Z" transform="translate(-26.056 -211.369)" fill="#1a1818"/>
      </g>
    </g>
  </g>
</svg>
