<svg xmlns="http://www.w3.org/2000/svg" width="16.454" height="21.047" viewBox="0 0 16.454 21.047">
  <path id="hair" d="M68.193,16.186l-.854.854a3.606,3.606,0,0,1,.364,1.584V20.7a.351.351,0,0,1-.7,0V18.624a2.916,2.916,0,0,0-2.679-2.909l-1.457,5.077a.351.351,0,1,1-.674-.193l1.419-4.946a2.15,2.15,0,0,1-1.381-.989.351.351,0,0,1,.6-.365,1.456,1.456,0,0,0,1.177.7.349.349,0,0,1,.134,0,3.6,3.6,0,0,1,2.819,1.422l.737-.737a.8.8,0,0,0,.062-1.059,1.493,1.493,0,0,1,.118-2.059.8.8,0,0,0,.077-1.078l-.5-.635A1.5,1.5,0,0,1,67.184,9.5l.326-1.106a.8.8,0,0,0-.463-.965l-.431-.177a1.5,1.5,0,0,1-.931-1.388V4.736A4.039,4.039,0,0,0,61.651.7h-2.1a4.039,4.039,0,0,0-4.034,4.034V5.865a1.5,1.5,0,0,1-.931,1.388l-.431.177a.8.8,0,0,0-.463.965L54.014,9.5a1.5,1.5,0,0,1-.265,1.358l-.5.635a.8.8,0,0,0,.077,1.078,1.493,1.493,0,0,1,.118,2.059A.8.8,0,0,0,53.5,15.69l.737.737A3.6,3.6,0,0,1,57.116,15a1.462,1.462,0,0,0,1.466-1.462V13.45a4.692,4.692,0,0,1-2.631-3.59.351.351,0,0,1,.695-.1,3.99,3.99,0,0,0,7.943-.55V7.051a3.817,3.817,0,0,1-2-1.668,9.266,9.266,0,0,1-6.665,3.211.351.351,0,1,1-.028-.7,8.562,8.562,0,0,0,6.488-3.37.351.351,0,0,1,.6.083,3.124,3.124,0,0,0,2.05,1.853.351.351,0,0,1,.254.311c0,.029,0,2.466,0,2.481a4.7,4.7,0,0,1-6.014,4.464,2.148,2.148,0,0,1-.8,1.515L60.6,16.876l1.251-.968a.351.351,0,0,1,.429.555l-1.33,1.029v2.5a.351.351,0,0,1-.7,0v-2.5L57.8,15.6a2.157,2.157,0,0,1-.682.11A2.917,2.917,0,0,0,54.2,18.624V20.7a.351.351,0,0,1-.7,0V18.624a3.606,3.606,0,0,1,.364-1.584l-.854-.854a1.5,1.5,0,0,1-.087-2.028.794.794,0,0,0-.079-1.076,1.509,1.509,0,0,1-.145-2.025l.5-.635a.8.8,0,0,0,.141-.723l-.326-1.106a1.5,1.5,0,0,1,.87-1.813l.431-.177a.8.8,0,0,0,.5-.739V4.736A4.741,4.741,0,0,1,59.547,0h2.1a4.741,4.741,0,0,1,4.736,4.736V5.865a.8.8,0,0,0,.5.739l.431.176a1.5,1.5,0,0,1,.87,1.813L67.857,9.7a.8.8,0,0,0,.141.723l.5.635a1.509,1.509,0,0,1-.145,2.025.794.794,0,0,0-.079,1.076,1.5,1.5,0,0,1-.087,2.028Zm-10.237.688a.351.351,0,0,0-.675.191l1.052,3.727a.351.351,0,1,0,.675-.191Z" transform="translate(-52.372 0)" fill="#1a8acc"/>
</svg>
