<svg id="weight" xmlns="http://www.w3.org/2000/svg" width="21.077" height="18.969" viewBox="0 0 21.077 18.969">
  <path id="Path_1127" data-name="Path 1127" d="M3.756,15.89H14.295a1.055,1.055,0,0,0,1.054-1.054V13.431a1.055,1.055,0,0,0-1.054-1.054H3.756A1.758,1.758,0,0,0,2,14.133v2.81A1.758,1.758,0,0,0,3.756,18.7a.351.351,0,1,0,0-.7,1.054,1.054,0,0,1,0-2.108ZM2.7,14.133a1.055,1.055,0,0,1,1.054-1.054H14.295a.352.352,0,0,1,.351.351v1.405a.352.352,0,0,1-.351.351H13.241V14.133a.351.351,0,1,0-.7,0v1.054H11.133v-.7a.351.351,0,1,0-.7,0v.7H9.026V14.133a.351.351,0,0,0-.7,0v1.054H6.918v-.7a.351.351,0,1,0-.7,0v.7H4.81V14.133a.351.351,0,0,0-.7,0v1.054H3.756a1.747,1.747,0,0,0-1.054.352Zm2.7-2.494a.351.351,0,0,0,.469-.163,3.8,3.8,0,0,1,3.68-2.261A3.961,3.961,0,0,1,12.3,10.323a.35.35,0,0,0,.48,0,3.961,3.961,0,0,1,2.746-1.107c2.832,0,4.391,2.121,4.391,5.972,0,.328-.016.671-.049,1.021a.352.352,0,0,0,.317.382h.033a.351.351,0,0,0,.35-.319c.034-.372.052-.737.052-1.086,0-4.242-1.857-6.674-5.094-6.674a4.59,4.59,0,0,0-1.932.421V8.864a1.758,1.758,0,0,1,1.756-1.756,1.054,1.054,0,0,0,0-2.108,3.868,3.868,0,0,0-3.864,3.864v.069a4.59,4.59,0,0,0-1.932-.421A4.512,4.512,0,0,0,5.24,11.17a.351.351,0,0,0,.163.469Zm6.784-2.775A3.165,3.165,0,0,1,15.349,5.7a.351.351,0,0,1,0,.7A2.462,2.462,0,0,0,12.89,8.864v.47c-.12.082-.237.17-.351.264-.114-.094-.232-.182-.351-.264Zm6.151,12.723a.351.351,0,0,1,.054.494A4.411,4.411,0,0,1,15,23.969a3.7,3.7,0,0,1-2.459-.915,3.7,3.7,0,0,1-2.459.915c-2.9,0-4.953-3.508-5.48-6.973a.351.351,0,0,1,.694-.106c.47,3.091,2.307,6.376,4.785,6.376a3.072,3.072,0,0,0,2.213-.939.351.351,0,0,1,.493,0A3.072,3.072,0,0,0,15,23.266a3.826,3.826,0,0,0,2.847-1.625.352.352,0,0,1,.494-.054Zm3.42-7.046a.351.351,0,0,0-.174.681,1.053,1.053,0,0,1-.264,2.073H10.782a1.055,1.055,0,0,0-1.054,1.054v1.405a1.055,1.055,0,0,0,1.054,1.054H21.32a1.758,1.758,0,0,0,1.756-1.756v-2.81a1.751,1.751,0,0,0-1.318-1.7Zm.616,4.51A1.055,1.055,0,0,1,21.32,20.1h-.351V19.051a.351.351,0,1,0-.7,0V20.1H18.861v-.7a.351.351,0,0,0-.7,0v.7H16.754V19.051a.351.351,0,0,0-.7,0V20.1H14.646v-.7a.351.351,0,1,0-.7,0v.7H12.538V19.051a.351.351,0,1,0-.7,0V20.1H10.782a.352.352,0,0,1-.351-.351V18.349A.352.352,0,0,1,10.782,18H21.32a1.747,1.747,0,0,0,1.054-.352Z" transform="translate(-2 -5)" fill="#1a8acc"/>
</svg>
