<svg xmlns="http://www.w3.org/2000/svg" width="16.315" height="16.315" viewBox="0 0 16.315 16.315"><g transform="matrix(0.998, -0.07, 0.07, 0.998, 0, 1.066)"><path d="M14.762.524a1.794,1.794,0,0,0-2.534,0l-.666.666L8.6,1.148a3,3,0,0,0-2.154.874L.524,7.945a1.794,1.794,0,0,0,0,2.534l4.283,4.283a1.794,1.794,0,0,0,2.534,0l5.923-5.923a3,3,0,0,0,.874-2.154L14.1,3.723l.666-.666a1.794,1.794,0,0,0,0-2.534Zm-.845.845a.6.6,0,0,1,0,.845l-.422.422-.845-.845.422-.422a.6.6,0,0,1,.845,0Zm-1.5,6.625L6.5,13.917a.6.6,0,0,1-.845,0L1.369,9.634a.6.6,0,0,1,0-.845L7.292,2.867A1.8,1.8,0,0,1,8.56,2.342h.025l1.817.026a1.791,1.791,0,0,0,.138,2.379l.845-.845a.6.6,0,0,1,0-.845l.422-.422,1.1,1.1L12.944,6.7A1.8,1.8,0,0,1,12.419,7.994Z" transform="translate(0 0)" fill="#fff"/><ellipse cx="0.597" cy="0.597" rx="0.597" ry="0.597" transform="translate(6.201 5.501)" fill="#fff"/><ellipse cx="0.597" cy="0.597" rx="0.597" ry="0.597" transform="translate(6.201 10.279)" fill="#fff"/><path d="M142.835,264.246H147.9v1.194h-5.067Z" transform="translate(-138.57 -256.356)" fill="#fff"/></g></svg>