<svg xmlns="http://www.w3.org/2000/svg" width="18.322" height="19.988" viewBox="0 0 18.322 19.988">
  <g id="immune" transform="translate(-2 0)">
    <path id="Path_1147" data-name="Path 1147" d="M20.049,4.042a.416.416,0,0,0-.26-.309C18.5,3.241,17.229,2.723,16,2.193c-1.581-.68-3.146-1.4-4.649-2.146a.431.431,0,0,0-.406.009C9.45.8,7.893,1.516,6.317,2.195c-1.225.528-2.5,1.046-3.784,1.539a.416.416,0,0,0-.26.309C2.031,5.286,1.038,11.728,5.3,16.451a12.066,12.066,0,0,0,5.746,3.519.411.411,0,0,0,.253,0,12.063,12.063,0,0,0,5.729-3.514C21.283,11.728,20.291,5.286,20.049,4.042ZM16.408,15.893a11.225,11.225,0,0,1-5.247,3.245,11.225,11.225,0,0,1-5.247-3.245c-3.8-4.214-3.092-10.1-2.864-11.467,1.223-.471,2.431-.964,3.6-1.467C8.18,2.3,9.7,1.6,11.161.878c1.463.72,2.981,1.42,4.515,2.082,1.166.5,2.374,1,3.6,1.467C19.5,5.793,20.207,11.679,16.408,15.893Z" transform="translate(0 0)" fill="#1a8acc"/>
    <path id="Path_1148" data-name="Path 1148" d="M21.577,16.164a.416.416,0,0,0-.416.416H20.3a3.293,3.293,0,0,0-.673-1.624l.609-.609a.416.416,0,1,0,.589-.589l-.589-.589a.416.416,0,1,0-.589.589l-.61.609a3.293,3.293,0,0,0-1.624-.673v-.862a.416.416,0,0,0,0-.833H16.58a.416.416,0,0,0,0,.833v.862a3.293,3.293,0,0,0-1.624.673l-.609-.609a.416.416,0,1,0-.589-.589l-.589.589a.416.416,0,1,0,.589.589l.609.61a3.293,3.293,0,0,0-.673,1.624h-.862a.416.416,0,0,0-.833,0v.833a.416.416,0,1,0,.833,0h.862a3.293,3.293,0,0,0,.673,1.624l-.609.609a.416.416,0,1,0-.589.589l.589.589a.416.416,0,1,0,.589-.589l.61-.609a3.293,3.293,0,0,0,1.624.673v.862a.416.416,0,0,0,0,.833h.833a.416.416,0,1,0,0-.833V20.3a3.293,3.293,0,0,0,1.624-.673l.609.609a.416.416,0,1,0,.589.589l.589-.589a.416.416,0,1,0-.589-.589l-.609-.61a3.293,3.293,0,0,0,.673-1.624h.862a.416.416,0,1,0,.833,0V16.58a.416.416,0,0,0-.416-.416ZM17,19.5A2.5,2.5,0,1,1,19.5,17,2.5,2.5,0,0,1,17,19.5Z" transform="translate(-5.836 -7.003)" fill="#1a8acc"/>
    <ellipse id="Ellipse_22" data-name="Ellipse 22" cx="0.732" cy="0.366" rx="0.732" ry="0.366" transform="translate(10.05 9.009)" fill="#1a8acc"/>
    <circle id="Ellipse_23" data-name="Ellipse 23" cx="0.366" cy="0.366" r="0.366" transform="translate(11.514 9.009)" fill="#1a8acc"/>
    <circle id="Ellipse_24" data-name="Ellipse 24" cx="0.366" cy="0.366" r="0.366" transform="translate(10.05 9.741)" fill="#1a8acc"/>
    <circle id="Ellipse_25" data-name="Ellipse 25" cx="0.366" cy="0.366" r="0.366" transform="translate(11.514 10.473)" fill="#1a8acc"/>
  </g>
</svg>
