<svg id="instagram" xmlns="http://www.w3.org/2000/svg" width="18.976" height="18.977" viewBox="0 0 18.976 18.977">
  <g id="Group_499" data-name="Group 499" transform="translate(14.544 3.511)">
    <g id="Group_498" data-name="Group 498">
      <path id="Path_100" data-name="Path 100" d="M392.862,94.739a.461.461,0,1,0,.461.461A.461.461,0,0,0,392.862,94.739Z" transform="translate(-392.401 -94.739)" fill="#fff"/>
    </g>
  </g>
  <g id="Group_501" data-name="Group 501" transform="translate(5.404 5.404)">
    <g id="Group_500" data-name="Group 500">
      <path id="Path_101" data-name="Path 101" d="M149.888,145.8a4.084,4.084,0,1,0,4.084,4.084A4.089,4.089,0,0,0,149.888,145.8Z" transform="translate(-145.804 -145.804)" fill="#fff"/>
    </g>
  </g>
  <g id="Group_503" data-name="Group 503">
    <g id="Group_502" data-name="Group 502">
      <path id="Path_102" data-name="Path 102" d="M13.774,0H5.2A5.208,5.208,0,0,0,0,5.2v8.572a5.208,5.208,0,0,0,5.2,5.2h8.572a5.208,5.208,0,0,0,5.2-5.2V5.2A5.208,5.208,0,0,0,13.774,0ZM9.488,14.693a5.2,5.2,0,1,1,5.2-5.2A5.211,5.211,0,0,1,9.488,14.693ZM15,5.553a1.581,1.581,0,1,1,1.581-1.581A1.583,1.583,0,0,1,15,5.553Z" fill="#fff"/>
    </g>
  </g>
</svg>
