<svg id="joint" xmlns="http://www.w3.org/2000/svg" width="15.505" height="24.725" viewBox="0 0 15.505 24.725">
  <g id="Group_1062" data-name="Group 1062" transform="translate(0 0)">
    <path id="Path_1128" data-name="Path 1128" d="M28.6,11.28a3.123,3.123,0,0,0,.319-.909,3.2,3.2,0,0,0-.743-2.707,5.084,5.084,0,0,1-.522-.7,1.58,1.58,0,0,0,.522-1.174,1.6,1.6,0,0,0-1.2-1.545V1.4a.4.4,0,0,0-.4-.4H21.791a.4.4,0,0,0-.4.4V4.656a4.575,4.575,0,0,1-1.18,2.99l-.018.018a3.187,3.187,0,0,0-.419,3.613,3.185,3.185,0,0,0,0,4.169,3.181,3.181,0,0,0,.274,3.436,1.573,1.573,0,0,0-.254.861,1.6,1.6,0,0,0,1.525,1.594,4.026,4.026,0,0,1,.07.733v3.257a.4.4,0,0,0,.4.4h4.785a.4.4,0,0,0,.4-.4V22.069a4.577,4.577,0,0,1,1.2-3.008,3.194,3.194,0,0,0,.743-2.707,3.1,3.1,0,0,0-.319-.909,3.191,3.191,0,0,0,0-4.165ZM20.778,8.21l.016-.017a5.375,5.375,0,0,0,1.4-3.536V1.8h3.988V4.589a.4.4,0,0,0,.4.4.794.794,0,0,1,.365,1.5.4.4,0,0,0-.169.538,5.828,5.828,0,0,0,.8,1.166,2.4,2.4,0,0,1,.556,2.036,2.375,2.375,0,0,1-1.859,1.889,2.411,2.411,0,0,1-1.39-.126,3.178,3.178,0,0,0,.9-2.217h-.8a2.393,2.393,0,1,1-4.2-1.564ZM19.8,13.362a2.365,2.365,0,0,1,.464-1.414,3.179,3.179,0,0,0,3.923.587,3.2,3.2,0,0,0,2.242.364,3.151,3.151,0,0,0,1.682-.947,2.386,2.386,0,0,1,0,2.821,3.148,3.148,0,0,0-1.682-.947,3.2,3.2,0,0,0-2.242.364,3.178,3.178,0,0,0-3.922.586,2.372,2.372,0,0,1-.465-1.413Zm7.776,5.17a5.375,5.375,0,0,0-1.4,3.536v2.858H22.19V22.069a5,5,0,0,0-.167-1.255.4.4,0,0,0-.472-.288.843.843,0,0,1-.159.015.8.8,0,0,1-.547-1.375.4.4,0,0,0,.014-.564,2.392,2.392,0,1,1,4.122-1.65h.8a3.18,3.18,0,0,0-.9-2.217,2.418,2.418,0,0,1,1.39-.126A2.376,2.376,0,0,1,28.13,16.5a2.4,2.4,0,0,1-.556,2.036Z" transform="translate(-16.423 -1)" fill="#1a8acc"/>
    <path id="Path_1129" data-name="Path 1129" d="M24.994,24.994v-.8A1.2,1.2,0,0,1,23.8,23H23A2,2,0,0,0,24.994,24.994Z" transform="translate(-18.828 -14.227)" fill="#1a8acc"/>
    <path id="Path_1130" data-name="Path 1130" d="M23,37.994h.8a1.2,1.2,0,0,1,1.2-1.2V36A2,2,0,0,0,23,37.994Z" transform="translate(-18.828 -22.043)" fill="#1a8acc"/>
    <path id="Path_1131" data-name="Path 1131" d="M0,0H.8V1.692H0Z" transform="translate(0.698 7.859) rotate(-45)" fill="#1a8acc"/>
    <path id="Path_1132" data-name="Path 1132" d="M0,0H1.692V.8H0Z" transform="translate(0.697 16.864) rotate(-45)" fill="#1a8acc"/>
    <path id="Path_1133" data-name="Path 1133" d="M0,0H.8V1.783H0Z" transform="translate(0 10.725) rotate(-63.435)" fill="#1a8acc"/>
    <path id="Path_1134" data-name="Path 1134" d="M0,0H1.783V.8H0Z" transform="translate(0 13.995) rotate(-26.565)" fill="#1a8acc"/>
    <path id="Path_1135" data-name="Path 1135" d="M0,0H1.692V.8H0Z" transform="translate(13.059 8.492) rotate(-45)" fill="#1a8acc"/>
    <path id="Path_1136" data-name="Path 1136" d="M0,0H.8V1.692H0Z" transform="translate(13.058 16.234) rotate(-45)" fill="#1a8acc"/>
    <path id="Path_1137" data-name="Path 1137" d="M0,0H1.783V.8H0Z" transform="translate(13.554 10.809) rotate(-26.565)" fill="#1a8acc"/>
    <path id="Path_1138" data-name="Path 1138" d="M0,0H.8V1.783H0Z" transform="translate(13.554 13.921) rotate(-63.435)" fill="#1a8acc"/>
  </g>
</svg>
