<svg xmlns="http://www.w3.org/2000/svg" xmlns:xlink="http://www.w3.org/1999/xlink" width="26" height="19.05" viewBox="0 0 26 19.05">
  <defs>
    <clipPath id="clip-path">
      <rect id="Rectangle_334" data-name="Rectangle 334" width="26" height="19.05" transform="translate(0 0)" fill="#1a8acc"/>
    </clipPath>
  </defs>
  <g id="gift-card" transform="translate(0 0)">
    <g id="Group_1025" data-name="Group 1025" clip-path="url(#clip-path)">
      <path id="Path_1120" data-name="Path 1120" d="M22.85,0H3.15A3.153,3.153,0,0,0,0,3.15V15.9a3.153,3.153,0,0,0,3.15,3.15h19.7A3.153,3.153,0,0,0,26,15.9V3.15A3.153,3.153,0,0,0,22.85,0M2.561,11.264a.825.825,0,0,0,.586.243h0a.819.819,0,0,0,.237-.035l.46-.138-.89,2.223a.83.83,0,0,0,.771,1.138h2.9a.824.824,0,0,0,.77-.521l.718-1.8v5.005H3.149A1.492,1.492,0,0,1,1.659,15.9v-7h.659v1.778a.824.824,0,0,0,.243.586M5.927,8.986l-1.953.586V6.581l1.953.586a3.1,3.1,0,0,0,0,1.819m-.975,4.061.921-2.313.988-.3c.059.052.119.1.182.149l-.984,2.46ZM8.116,5.038a3.132,3.132,0,0,0-1.25.677L3.385,4.671a.829.829,0,0,0-1.032.558.814.814,0,0,0-.035.237V7.244H1.659V3.15A1.492,1.492,0,0,1,3.148,1.659H8.116Zm3.84,2.133,1.953-.586V9.571l-1.953-.585a3.1,3.1,0,0,0,0-1.815m-.137,5.869-.983-2.46c.062-.048.123-.1.182-.15l.988.3.927,2.313Zm12.52-5.793H15.568V5.466a.83.83,0,0,0-.829-.829.478.478,0,0,0-.239.035L11.022,5.714a3.132,3.132,0,0,0-1.25-.677V1.659H22.851a1.492,1.492,0,0,1,1.488,1.415ZM9.773,12.381l.718,1.8a.826.826,0,0,0,.77.52h2.9a.831.831,0,0,0,.77-1.138l-.889-2.218.46.138a.833.833,0,0,0,.632-.066.819.819,0,0,0,.4-.492.838.838,0,0,0,.035-.237V8.9h8.773v7a1.489,1.489,0,0,1-1.488,1.491H9.773Zm.659-4.307A1.489,1.489,0,1,1,8.943,6.585a1.491,1.491,0,0,1,1.489,1.489" fill="#1a8acc"/>
    </g>
  </g>
</svg>
