<svg xmlns="http://www.w3.org/2000/svg" width="24.94" height="21.972" viewBox="0 0 24.94 21.972">
  <g id="favourites" transform="translate(0.125 0.125)">
    <path id="XMLID_25_" d="M22.12,42.661l-7.365,7.507a3.675,3.675,0,0,1-5.263,0L2.127,42.661a7.522,7.522,0,0,1,0-10.483,7.205,7.205,0,0,1,10-.315,7.205,7.205,0,0,1,10,.315A7.522,7.522,0,0,1,22.12,42.661Zm-1.06-9.444a5.722,5.722,0,0,0-8.2,0c-.056.057-.105.125-.175.187a.762.762,0,0,1-1.113,0c-.065-.067-.12-.13-.175-.187a5.722,5.722,0,0,0-8.205,0,6.031,6.031,0,0,0,0,8.4l7.365,7.507a2.19,2.19,0,0,0,3.143,0l7.365-7.507h0A6.031,6.031,0,0,0,21.06,33.218Z" transform="translate(0.222 -30)" fill="#1387cb" stroke="#1a8acc" stroke-width="0.25"/>
    <path id="XMLID_25__-_Outline" data-name="XMLID_25_ - Outline" d="M12.22,51.6a3.882,3.882,0,0,1-2.79-1.176L2.065,42.914a7.745,7.745,0,0,1,0-10.794,7.427,7.427,0,0,1,10.155-.455,7.427,7.427,0,0,1,10.155.455,7.746,7.746,0,0,1,0,10.794L15.01,50.421A3.882,3.882,0,0,1,12.22,51.6ZM7.386,30.319a6.964,6.964,0,0,0-5,2.112,7.3,7.3,0,0,0,0,10.172L9.747,50.11a3.453,3.453,0,0,0,4.946,0L22.059,42.6a7.3,7.3,0,0,0,0-10.172,6.983,6.983,0,0,0-9.69-.306l-.149.134-.149-.134A6.983,6.983,0,0,0,7.386,30.319ZM12.22,50.112a2.408,2.408,0,0,1-1.73-.731L3.125,41.874a6.254,6.254,0,0,1,0-8.715,5.944,5.944,0,0,1,8.522,0c.03.031.06.063.091.1s.055.06.085.091a.55.55,0,0,0,.806-.012,1.032,1.032,0,0,0,.092-.1c.024-.028.047-.054.072-.079a5.944,5.944,0,0,1,8.522,0,6.254,6.254,0,0,1,0,8.715L13.95,49.381A2.408,2.408,0,0,1,12.22,50.112ZM7.386,31.8A5.49,5.49,0,0,0,3.442,33.47a5.808,5.808,0,0,0,0,8.093l7.365,7.507a1.968,1.968,0,0,0,2.826,0L21,41.563a5.808,5.808,0,0,0,0-8.093,5.5,5.5,0,0,0-7.888,0c-.018.019-.036.039-.054.06a1.415,1.415,0,0,1-.133.138,1.092,1.092,0,0,1-.722.3.97.97,0,0,1-.7-.308c-.033-.034-.064-.068-.093-.1s-.054-.059-.081-.086A5.49,5.49,0,0,0,7.386,31.8Z" transform="translate(0.125 -29.875)" fill="#1387cb" stroke="#1a8acc" stroke-width="0.25"/>
  </g>
</svg>
