<svg xmlns="http://www.w3.org/2000/svg" width="24.993" height="25.03" viewBox="0 0 24.993 25.03">
  <g id="call" transform="translate(0.249 0.252)">
    <path id="Path_75" data-name="Path 75" d="M19.711,41.181a2.412,2.412,0,0,0-1.75-.8,2.5,2.5,0,0,0-1.77.8l-1.636,1.631c-.135-.072-.269-.14-.4-.207-.186-.093-.362-.181-.513-.274a17.78,17.78,0,0,1-4.261-3.883,10.489,10.489,0,0,1-1.4-2.205c.424-.388.818-.792,1.2-1.18.145-.145.29-.3.435-.44a2.375,2.375,0,0,0,0-3.582L8.209,29.622c-.16-.16-.326-.326-.481-.492-.311-.321-.637-.652-.973-.963a2.451,2.451,0,0,0-1.734-.761,2.536,2.536,0,0,0-1.76.761l-.01.01-1.76,1.776A3.787,3.787,0,0,0,.366,32.36,9.075,9.075,0,0,0,1.028,36.2a22.29,22.29,0,0,0,3.96,6.606A24.362,24.362,0,0,0,13.1,49.159,12.639,12.639,0,0,0,17.656,50.5c.109.005.223.01.326.01a3.9,3.9,0,0,0,2.987-1.284c.005-.01.016-.016.021-.026a11.769,11.769,0,0,1,.906-.937c.223-.212.45-.435.673-.668a2.583,2.583,0,0,0,.782-1.791,2.488,2.488,0,0,0-.8-1.776Zm1.853,5.451c-.005,0-.005.005,0,0-.2.217-.409.414-.632.632a13.609,13.609,0,0,0-1,1.035,2.5,2.5,0,0,1-1.946.823c-.078,0-.16,0-.238-.005a11.228,11.228,0,0,1-4.038-1.211,23,23,0,0,1-7.641-5.984,21.017,21.017,0,0,1-3.727-6.207,7.392,7.392,0,0,1-.58-3.241,2.376,2.376,0,0,1,.714-1.538l1.765-1.765A1.177,1.177,0,0,1,5.03,28.8a1.107,1.107,0,0,1,.756.362l.016.016c.316.3.616.6.932.927.16.166.326.331.492.5l1.413,1.413a.988.988,0,0,1,0,1.6c-.15.15-.3.3-.445.445-.435.445-.849.859-1.3,1.263-.01.01-.021.016-.026.026A1.056,1.056,0,0,0,6.6,36.538l.016.047a11.346,11.346,0,0,0,1.672,2.728l.005.005a19,19,0,0,0,4.6,4.183,7.063,7.063,0,0,0,.637.347c.186.093.362.181.513.274.021.01.041.026.062.036a1.122,1.122,0,0,0,.513.129,1.107,1.107,0,0,0,.787-.357l1.77-1.77a1.171,1.171,0,0,1,.782-.388,1.054,1.054,0,0,1,.745.378l.01.01,2.852,2.852A1.024,1.024,0,0,1,21.565,46.633Z" transform="translate(-0.344 -25.987)" fill="#1a8acc" stroke="#1a8acc" stroke-width="0.5"/>
    <path id="Path_76" data-name="Path 76" d="M245.519,87.312a6.662,6.662,0,0,1,5.425,5.425.7.7,0,0,0,.689.58.928.928,0,0,0,.119-.01.7.7,0,0,0,.575-.808,8.056,8.056,0,0,0-6.564-6.564.7.7,0,0,0-.808.569A.691.691,0,0,0,245.519,87.312Z" transform="translate(-232.281 -81.477)" fill="#1a8acc" stroke="#1a8acc" stroke-width="0.5"/>
    <path id="Path_77" data-name="Path 77" d="M260.4,10.82A13.265,13.265,0,0,0,249.587.011a.7.7,0,1,0-.228,1.377,11.849,11.849,0,0,1,9.66,9.66.7.7,0,0,0,.688.58.926.926,0,0,0,.119-.01A.686.686,0,0,0,260.4,10.82Z" transform="translate(-235.915 0)" fill="#1a8acc" stroke="#1a8acc" stroke-width="0.5"/>
  </g>
</svg>
