<svg xmlns="http://www.w3.org/2000/svg" width="24.709" height="18.569" viewBox="0 0 24.709 18.569">
  <g id="coupon" transform="translate(0.075 -59.336)">
    <path id="Path_165" data-name="Path 165" d="M22.257,77.83H2.3a2.3,2.3,0,0,1-2.3-2.3V71.69a.767.767,0,0,1,.767-.767,2.3,2.3,0,0,0,0-4.6A.767.767,0,0,1,0,65.551V61.713a2.3,2.3,0,0,1,2.3-2.3H22.257a2.3,2.3,0,0,1,2.3,2.3v3.837a.767.767,0,0,1-.767.767,2.3,2.3,0,0,0,0,4.6.767.767,0,0,1,.767.767v3.837a2.3,2.3,0,0,1-2.3,2.3ZM1.535,72.381v3.147A.768.768,0,0,0,2.3,76.3H22.257a.768.768,0,0,0,.767-.767V72.381a3.838,3.838,0,0,1,0-7.52V61.713a.768.768,0,0,0-.767-.767H2.3a.768.768,0,0,0-.767.767V64.86a3.838,3.838,0,0,1,0,7.52Z" transform="translate(0)" fill="#1a8acc" stroke="#1c8acc" stroke-width="0.15"/>
    <path id="Path_166" data-name="Path 166" d="M0,0H13.114V1.535H0Z" transform="translate(9.259 74.48) rotate(-69.444)" fill="#1a8acc" stroke="#1c8acc" stroke-width="0.15"/>
    <path id="path-1_20_" d="M121.125,153.134a2.3,2.3,0,1,1,2.3-2.3A2.3,2.3,0,0,1,121.125,153.134Zm0-3.07a.767.767,0,1,0,.767.767A.768.768,0,0,0,121.125,150.064Z" transform="translate(-112.477 -84.255)" fill="#1a8acc" stroke="#1c8acc" stroke-width="0.15"/>
    <path id="path-1_19_" d="M269.654,242.251a2.3,2.3,0,1,1,2.3-2.3A2.3,2.3,0,0,1,269.654,242.251Zm0-3.07a.767.767,0,1,0,.767.767A.768.768,0,0,0,269.654,239.181Z" transform="translate(-253.073 -168.612)" fill="#1a8acc" stroke="#1c8acc" stroke-width="0.15"/>
  </g>
</svg>
