<svg id="sale" xmlns="http://www.w3.org/2000/svg" width="15.024" height="15.024" viewBox="0 0 15.024 15.024">
  <path id="Path_70" data-name="Path 70" d="M14.51.515a1.763,1.763,0,0,0-2.49,0l-.655.655-2.91-.041a2.952,2.952,0,0,0-2.117.859L.515,7.81a1.763,1.763,0,0,0,0,2.49l4.209,4.209a1.763,1.763,0,0,0,2.49,0l5.822-5.822A2.951,2.951,0,0,0,13.9,6.57l-.041-2.91.655-.655a1.763,1.763,0,0,0,0-2.49Zm-.83.83a.588.588,0,0,1,0,.83l-.415.415-.83-.83.415-.415a.588.588,0,0,1,.83,0ZM12.207,7.857,6.385,13.679a.588.588,0,0,1-.83,0L1.345,9.47a.588.588,0,0,1,0-.83L7.168,2.818A1.771,1.771,0,0,1,8.413,2.3h.025l1.786.025a1.76,1.76,0,0,0,.135,2.338l.83-.83a.587.587,0,0,1,0-.83L11.6,2.59l1.077,1.077.042,2.92A1.771,1.771,0,0,1,12.207,7.857Z" transform="translate(0 0)" fill="#fff"/>
  <ellipse id="Ellipse_1" data-name="Ellipse 1" cx="0.587" cy="0.587" rx="0.587" ry="0.587" transform="translate(6.095 5.407)" fill="#fff"/>
  <ellipse id="Ellipse_2" data-name="Ellipse 2" cx="0.587" cy="0.587" rx="0.587" ry="0.587" transform="translate(6.095 10.103)" fill="#fff"/>
  <path id="Path_71" data-name="Path 71" d="M142.835,264.246h4.981v1.174h-4.981Z" transform="translate(-138.643 -256.491)" fill="#fff"/>
</svg>
