<svg xmlns="http://www.w3.org/2000/svg" xmlns:xlink="http://www.w3.org/1999/xlink" width="20.333" height="20.208" viewBox="0 0 20.333 20.208">
  <defs>
    <clipPath id="clip-path">
      <rect id="Rectangle_357" data-name="Rectangle 357" width="20.333" height="20.208" fill="#1a8acc"/>
    </clipPath>
  </defs>
  <g id="shrink-wrap" transform="translate(0 0)">
    <g id="Group_1097" data-name="Group 1097" transform="translate(0 0)" clip-path="url(#clip-path)">
      <path id="Path_1197" data-name="Path 1197" d="M5.008,27.671a1.288,1.288,0,1,0-1.288,1.289,1.29,1.29,0,0,0,1.288-1.289m-.649,0a.639.639,0,1,1-.639-.639.64.64,0,0,1,.639.639" transform="translate(-1.081 -11.729)" fill="#1a8acc"/>
      <path id="Path_1198" data-name="Path 1198" d="M19.849,11.811h-.844v-.635a1.442,1.442,0,0,0-.879-1.325v-.92a.325.325,0,0,0-.65,0v.807a1.451,1.451,0,0,0-.6.175l-.814.444a1.136,1.136,0,0,0-1.022-.646h-.212a1.135,1.135,0,0,0-1.022.646L13,9.913a1.437,1.437,0,0,0-2.128,1.262v.636h-.845a.484.484,0,0,0-.483.483v1.681a.484.484,0,0,0,.483.483h.146V17.8h-5.8a2.635,2.635,0,0,0,.906-1.962V2.986h8.3V6.169a.721.721,0,0,0,.72.723h3.183v.784A.324.324,0,0,0,17.8,8h0a.324.324,0,0,0,.324-.325V6.564a.323.323,0,0,0-.1-.229l-3.9-3.9a.32.32,0,0,0-.229-.095H5.26A2.638,2.638,0,0,0,0,2.643v13.2A2.653,2.653,0,0,0,2.638,18.45h7.526V19.7a.509.509,0,0,0,.508.508H19.2A.509.509,0,0,0,19.7,19.7V14.458h.146a.484.484,0,0,0,.483-.483V12.294a.484.484,0,0,0-.483-.483m-.8,7.748H16.175v-5.1h2.876Zm-3.529,0H14.347v-5.1h1.176Zm-4.009-8.383a.789.789,0,0,1,.789-.789h0a.793.793,0,0,1,.377.1l1.015.554v.774H11.516Zm2.833.635v-.966a.485.485,0,0,1,.483-.483h.21a.485.485,0,0,1,.483.483v.966Zm1.828,0v-.774l1.012-.554a.789.789,0,0,1,1.166.693v.635Zm-3.5,2.322a.325.325,0,0,0,.325.325H13.7v5.1H10.818v-5.1h.8a.325.325,0,1,0,0-.65H10.188V12.461h9.495l0,1.347H13a.325.325,0,0,0-.325.325M2.64,17.83V17.8A1.993,1.993,0,0,1,.651,15.841v-.027A1.989,1.989,0,1,1,2.64,17.8Zm1.988-3.75a2.634,2.634,0,0,0-3.658-.31,2.6,2.6,0,0,0-.319.31V2.643A1.992,1.992,0,0,1,2.639.653h0A1.989,1.989,0,0,1,4.629,2.643Zm9.6-7.913V3.445l2.793,2.793H14.294a.071.071,0,0,1-.071-.071" transform="translate(0 0)" fill="#1a8acc"/>
    </g>
  </g>
</svg>
