<svg xmlns="http://www.w3.org/2000/svg" width="22.324" height="19.895" viewBox="0 0 22.324 19.895">
  <g id="sleep" transform="translate(0.056 0.05)">
    <path id="Path_1139" data-name="Path 1139" d="M6.054,125.255a7.755,7.755,0,0,0-3.531.1l-1.385.371a.388.388,0,0,1-.476-.476l.412-1.538a7.559,7.559,0,0,0,.142-3.343,7.56,7.56,0,0,1,0-2.708,7.56,7.56,0,0,0-.142-3.343l-.412-1.538a.388.388,0,0,1,.476-.476l1.385.371a7.615,7.615,0,0,0,2.46.241.324.324,0,1,0-.041-.646,6.968,6.968,0,0,1-2.251-.221l-1.385-.371a1.036,1.036,0,0,0-1.269,1.269l.412,1.538a6.908,6.908,0,0,1,.132,3.054,8.207,8.207,0,0,0,0,2.949,6.909,6.909,0,0,1-.132,3.054l-.412,1.538a1.038,1.038,0,0,0,1,1.305,1.055,1.055,0,0,0,.273-.036l1.385-.371a7.1,7.1,0,0,1,3.234-.09.324.324,0,0,0,.129-.635Z" transform="translate(0 -108.009)" fill="#1a8acc" stroke="#1a8acc" stroke-width="0.1"/>
    <path id="Path_1140" data-name="Path 1140" d="M142.154,120.025a6.908,6.908,0,0,1-.132-3.054,8.208,8.208,0,0,0,0-2.949,6.908,6.908,0,0,1,.132-3.054l.412-1.538a1.036,1.036,0,0,0-1.269-1.269l-1.385.371a7.115,7.115,0,0,1-3.676-.014,20.579,20.579,0,0,0-9.479,0,.324.324,0,0,0,.168.626,19.944,19.944,0,0,1,9.144,0,7.764,7.764,0,0,0,4.012.014l1.385-.371a.388.388,0,0,1,.476.476l-.412,1.538a7.56,7.56,0,0,0-.142,3.343,7.563,7.563,0,0,1,0,2.708,7.559,7.559,0,0,0,.142,3.343l.412,1.538a.388.388,0,0,1-.476.476l-1.385-.371a7.764,7.764,0,0,0-4.012.014c-.221.059-.451.114-.686.164a4.366,4.366,0,0,0,.481-1.334,2.222,2.222,0,0,0,1.274-1.9,1.38,1.38,0,0,0-.387-1.143,1.327,1.327,0,0,0-.216-.168v-2.034a3.658,3.658,0,0,0-3.654-3.654H130.14a3.658,3.658,0,0,0-3.654,3.654v2.016a1.332,1.332,0,0,0-.244.186,1.381,1.381,0,0,0-.387,1.143,2.184,2.184,0,0,0,1.334,1.912,4.41,4.41,0,0,0,7.657,2.077c.483-.08.95-.18,1.389-.3a7.115,7.115,0,0,1,3.676-.014l1.386.371a1.053,1.053,0,0,0,.273.036,1.038,1.038,0,0,0,1-1.305Zm-10.63,3.612a3.772,3.772,0,0,1-3.732-3.272.323.323,0,0,0-.326-.282c-.421.006-.917-.687-.965-1.348a.761.761,0,0,1,.193-.631,1,1,0,0,1,.632-.24.611.611,0,0,1,.088,0,.324.324,0,0,0,.346-.323v-1.384a1.024,1.024,0,0,1,1.022-1.022h3.448a.324.324,0,0,0,0-.648h-3.448a1.673,1.673,0,0,0-1.648,1.4v-.449a3.01,3.01,0,0,1,3.006-3.007h2.739a3.01,3.01,0,0,1,3.006,3.007v.311a1.673,1.673,0,0,0-1.62-1.262h-.453a.324.324,0,1,0,0,.648h.453a1.024,1.024,0,0,1,1.022,1.022v1.382a.324.324,0,0,0,.324.324h.053a1,1,0,0,1,.632.24.761.761,0,0,1,.193.631c-.047.64-.519,1.32-.934,1.347a.324.324,0,0,0-.3.281A3.771,3.771,0,0,1,131.524,123.637Z" transform="translate(-120.389 -104.49)" fill="#1a8acc" stroke="#1a8acc" stroke-width="0.1"/>
    <path id="Path_1141" data-name="Path 1141" d="M228.331,393.607a1.2,1.2,0,0,1-1.506,0,.324.324,0,0,0-.424.49,1.844,1.844,0,0,0,2.354,0,.324.324,0,0,0-.424-.49Z" transform="translate(-216.471 -377.664)" fill="#1a8acc" stroke="#1a8acc" stroke-width="0.1"/>
    <path id="Path_1142" data-name="Path 1142" d="M278.253,341.166a.324.324,0,0,0-.406.213.368.368,0,0,1-.7,0,.324.324,0,1,0-.618.193,1.016,1.016,0,0,0,1.94,0A.324.324,0,0,0,278.253,341.166Z" transform="translate(-264.514 -327.559)" fill="#1a8acc" stroke="#1a8acc" stroke-width="0.1"/>
    <path id="Path_1143" data-name="Path 1143" d="M193.356,341.571a.324.324,0,1,0-.618-.193.368.368,0,0,1-.7,0,.324.324,0,1,0-.618.193,1.016,1.016,0,0,0,1.94,0Z" transform="translate(-183.097 -327.559)" fill="#1a8acc" stroke="#1a8acc" stroke-width="0.1"/>
    <path id="Path_1144" data-name="Path 1144" d="M379.343,167c0,.266.152.353.414.353h1.94c.2,0,.371-.1.371-.3s-.166-.3-.371-.3H380.3l1.643-1.953a.4.4,0,0,0,.1-.257.293.293,0,0,0-.331-.327h-1.883c-.2,0-.371.1-.371.3s.166.3.371.3h1.247l-1.617,1.909A.416.416,0,0,0,379.343,167Z" transform="translate(-362.885 -158.301)" fill="#1a8acc" stroke="#1a8acc" stroke-width="0.1"/>
    <path id="Path_1145" data-name="Path 1145" d="M410.147,60.4h1.518a.233.233,0,1,0,0-.465h-.979l1.1-1.208a.313.313,0,0,0,.094-.2.234.234,0,0,0-.245-.261h-1.416a.233.233,0,1,0,0,.465h.861l-1.122,1.22a.306.306,0,0,0-.078.216A.239.239,0,0,0,410.147,60.4Z" transform="translate(-392.099 -56.947)" fill="#1a8acc" stroke="#1a8acc" stroke-width="0.1"/>
    <path id="Path_1146" data-name="Path 1146" d="M356.532,29.465h1.136a.174.174,0,1,0,0-.348h-.733l.825-.9a.234.234,0,0,0,.07-.15.175.175,0,0,0-.183-.2h-1.06a.174.174,0,1,0,0,.348h.644l-.84.913a.229.229,0,0,0-.058.162A.179.179,0,0,0,356.532,29.465Z" transform="translate(-340.874 -27.868)" fill="#1a8acc" stroke="#1a8acc" stroke-width="0.1"/>
  </g>
</svg>
