<svg xmlns="http://www.w3.org/2000/svg" width="20.851" height="23.02" viewBox="0 0 20.851 23.02">
  <g id="stress" transform="translate(-4.14 -0.904)">
    <path id="Path_1152" data-name="Path 1152" d="M6.121,23.873a.336.336,0,0,1-.328-.41A8.457,8.457,0,0,1,7.807,19.24a5.715,5.715,0,0,0,1.3-2.245c.613-1.961-1.019-3.082-2.1-3.824a4.751,4.751,0,0,1-.665-.507A6.93,6.93,0,0,1,4.263,6.8,6.734,6.734,0,0,1,16.719,4.29a2.2,2.2,0,0,1,.182.393l.226.631a1.552,1.552,0,0,0,.627.785l1.752,1.113a.336.336,0,0,1,.047.532l-.989.905.7.611a.336.336,0,0,1,.08.4L19.179,10l.32.064a.336.336,0,0,1,.243.461,2.849,2.849,0,0,0-.225.777c.029.032.076.076.115.113a1.355,1.355,0,0,1,.562,1.181c-.06.359-.513.659-1.534,1.3a7.128,7.128,0,0,0-2.184,1.742,4.92,4.92,0,0,0,.039,3.626,4.738,4.738,0,0,0,.535.8,5.971,5.971,0,0,1,1.429,3.441.336.336,0,1,1-.67.062,5.322,5.322,0,0,0-1.292-3.094,5.292,5.292,0,0,1-.609-.915,5.513,5.513,0,0,1-.047-4.19A6.874,6.874,0,0,1,18.3,13.332a7.538,7.538,0,0,0,1.233-.871c.013-.181-.15-.353-.364-.556a1.689,1.689,0,0,1-.227-.243,1.2,1.2,0,0,1,.034-1.015h0a.616.616,0,0,1-.429-.879l.085-.17-.791-.688a.336.336,0,0,1-.006-.5l.943-.863-1.381-.878a2.228,2.228,0,0,1-.9-1.127l-.226-.631a1.531,1.531,0,0,0-.126-.275A6.061,6.061,0,0,0,4.929,6.893a6.254,6.254,0,0,0,1.9,5.3,4.637,4.637,0,0,0,.563.421c1.091.75,3.121,2.145,2.36,4.579a6.432,6.432,0,0,1-1.426,2.478A7.786,7.786,0,0,0,6.449,23.61a.336.336,0,0,1-.328.263Z" transform="translate(0 0)" fill="#1a8acc" stroke="#1a8acc" stroke-width="0.1"/>
    <path id="Path_1153" data-name="Path 1153" d="M16.6,15.091c-1.126,0-3.252-.225-4.2-1.819a2.034,2.034,0,0,1,2.229-3.018,2.034,2.034,0,0,1,3.715-.523c1.3,2.174-.692,5.063-.778,5.184a.336.336,0,0,1-.237.141,6.828,6.828,0,0,1-.728.034Zm-2.456-4.222a1.362,1.362,0,0,0-1.168,2.059c.939,1.576,3.472,1.517,4.121,1.473.346-.552,1.6-2.755.667-4.326a1.361,1.361,0,0,0-2.53.647.336.336,0,0,1-.485.289,1.372,1.372,0,0,0-.606-.142Z" transform="translate(-5.251 -5.137)" fill="#1a8acc" stroke="#1a8acc" stroke-width="0.1"/>
    <path id="Path_1154" data-name="Path 1154" d="M27.159,37.673a.332.332,0,0,1-.122-.023.336.336,0,0,1-.191-.436c.829-2.129-.468-4.4-1.416-6.058a6.922,6.922,0,0,1-.934-2.032,5.3,5.3,0,0,1,.7-3.432.336.336,0,0,1,.562.369,4.692,4.692,0,0,0-.594,2.965,6.891,6.891,0,0,0,.852,1.8c1.015,1.776,2.4,4.208,1.459,6.636a.336.336,0,0,1-.314.214Z" transform="translate(-13.438 -16.291)" fill="#1a8acc" stroke="#1a8acc" stroke-width="0.1"/>
    <path id="Path_1155" data-name="Path 1155" d="M26.831,22.037a.336.336,0,0,1-.007-.673,2.859,2.859,0,0,0,1.61-.8c.091-.071.182-.142.274-.212a4.311,4.311,0,0,1,2.4-1.1.343.343,0,0,1,.343.33.337.337,0,0,1-.33.343,3.661,3.661,0,0,0-2,.962c-.09.068-.178.137-.266.205a3.4,3.4,0,0,1-2.009.944Z" transform="translate(-14.795 -12.115)" fill="#1a8acc" stroke="#1a8acc" stroke-width="0.1"/>
    <path id="Path_1156" data-name="Path 1156" d="M53.135,13.894a.336.336,0,0,1-.1-.657c1.8-.562,1.761-2.932,1.761-2.956a.336.336,0,0,1,.328-.345.343.343,0,0,1,.344.328c0,.118.045,2.9-2.233,3.614a.333.333,0,0,1-.1.015Z" transform="translate(-32.253 -5.932)" fill="#1a8acc" stroke="#1a8acc" stroke-width="0.1"/>
    <path id="Path_1157" data-name="Path 1157" d="M58.065,27.64a.336.336,0,0,1-.331-.276,2.431,2.431,0,0,0-1.708-2.019.336.336,0,1,1,.146-.657A3.091,3.091,0,0,1,58.4,27.243a.336.336,0,0,1-.27.392.321.321,0,0,1-.061.006Z" transform="translate(-34.22 -15.716)" fill="#1a8acc" stroke="#1a8acc" stroke-width="0.1"/>
    <path id="Path_1158" data-name="Path 1158" d="M57.921,18.314a.336.336,0,0,1-.063-.667,3.122,3.122,0,0,0,1.864-1.413.336.336,0,1,1,.586.33,3.757,3.757,0,0,1-2.324,1.744.347.347,0,0,1-.063.006Z" transform="translate(-35.429 -9.997)" fill="#1a8acc" stroke="#1a8acc" stroke-width="0.1"/>
  </g>
</svg>
