<svg xmlns="http://www.w3.org/2000/svg" width="23.518" height="23.518" viewBox="0 0 23.518 23.518">
  <g id="tag_1_" data-name="tag(1)" transform="translate(0 8.608) rotate(-30)">
    <path id="Path_70" data-name="Path 70" d="M16.627.59a2.02,2.02,0,0,0-2.854,0l-.75.75L9.688,1.293a3.383,3.383,0,0,0-2.426.985L.591,8.949a2.02,2.02,0,0,0,0,2.854l4.824,4.824a2.02,2.02,0,0,0,2.854,0l6.672-6.672a3.381,3.381,0,0,0,.985-2.426l-.047-3.335.75-.75a2.02,2.02,0,0,0,0-2.854Zm-.951.951a.673.673,0,0,1,0,.951l-.476.476-.951-.951.476-.476a.673.673,0,0,1,.951,0ZM13.988,9,7.317,15.675a.673.673,0,0,1-.951,0L1.542,10.852a.673.673,0,0,1,0-.951L8.213,3.229a2.029,2.029,0,0,1,1.427-.591h.028l2.047.029a2.017,2.017,0,0,0,.155,2.679l.951-.951a.673.673,0,0,1,0-.951l.476-.476L14.531,4.2l.048,3.346A2.029,2.029,0,0,1,13.988,9Z" transform="translate(0 0)" fill="#fff"/>
    <ellipse id="Ellipse_1" data-name="Ellipse 1" cx="0.673" cy="0.673" rx="0.673" ry="0.673" transform="translate(6.985 6.196)" fill="#fff"/>
    <ellipse id="Ellipse_2" data-name="Ellipse 2" cx="0.673" cy="0.673" rx="0.673" ry="0.673" transform="translate(6.985 11.577)" fill="#fff"/>
    <path id="Path_71" data-name="Path 71" d="M142.835,264.246h5.707v1.345h-5.707Z" transform="translate(-138.031 -255.359)" fill="#fff"/>
  </g>
</svg>
