<svg xmlns="http://www.w3.org/2000/svg" width="12.354" height="14.549" viewBox="0 0 12.354 14.549">
  <g id="user" transform="translate(-4.875 -2.875)">
    <path id="Path_66" data-name="Path 66" d="M15.283,16.051a.549.549,0,1,0-.772.78,4.905,4.905,0,0,1,1.465,3.511c0,.671-1.924,1.646-4.939,1.646S6.1,21.012,6.1,20.341a4.905,4.905,0,0,1,1.446-3.492.549.549,0,1,0-.776-.776A6,6,0,0,0,5,20.342c0,1.782,3.11,2.744,6.037,2.744s6.037-.962,6.037-2.744A5.993,5.993,0,0,0,15.283,16.051Z" transform="translate(0.015 -5.802)" fill="#fff"/>
    <path id="Path_66_-_Outline" data-name="Path 66 - Outline" d="M14.912,15.767h0a.684.684,0,0,1,.484.2,6.168,6.168,0,0,1,1.832,4.391c0,.887-.694,1.637-2.008,2.17a11.606,11.606,0,0,1-4.168.714,11.606,11.606,0,0,1-4.169-.714c-1.314-.532-2.008-1.283-2.008-2.17a6.175,6.175,0,0,1,1.809-4.368.689.689,0,0,1,.974.974,4.8,4.8,0,0,0-1.4,3.392c0,.532,1.822,1.508,4.8,1.508s4.8-.975,4.8-1.506a4.793,4.793,0,0,0-1.423-3.411.689.689,0,0,1,.484-1.179Zm-3.86,7.194a11.319,11.319,0,0,0,4.063-.693c.836-.339,1.833-.945,1.833-1.911A5.887,5.887,0,0,0,15.2,16.165a.406.406,0,0,0-.288-.118h0a.409.409,0,0,0-.287.7,5.074,5.074,0,0,1,1.506,3.611c0,.843-2.172,1.786-5.079,1.786S5.973,21.2,5.973,20.356A5.077,5.077,0,0,1,7.46,16.765a.409.409,0,0,0-.578-.578,5.894,5.894,0,0,0-1.727,4.17c0,.966,1,1.572,1.833,1.911A11.319,11.319,0,0,0,11.052,22.961Z" transform="translate(0 -5.817)" fill="#fff"/>
    <path id="Path_67" data-name="Path 67" d="M12.842,10.683A3.842,3.842,0,1,0,9,6.842,3.842,3.842,0,0,0,12.842,10.683Zm0-6.586A2.744,2.744,0,1,1,10.1,6.842,2.744,2.744,0,0,1,12.842,4.1Z" transform="translate(-1.79 0.015)" fill="#fff"/>
    <path id="Path_67_-_Outline" data-name="Path 67 - Outline" d="M12.857,10.838h0a3.982,3.982,0,1,1,3.982-3.982A3.992,3.992,0,0,1,12.856,10.838Zm0-7.683a3.7,3.7,0,1,0,3.7,3.7A3.706,3.706,0,0,0,12.857,3.155Zm0,6.586a2.884,2.884,0,0,1,0-5.768h0a2.884,2.884,0,1,1,0,5.768Zm0-5.488a2.6,2.6,0,1,0,2.6,2.6,2.612,2.612,0,0,0-2.6-2.6Z" transform="translate(-1.805)" fill="#fff"/>
  </g>
</svg>
