<svg xmlns="http://www.w3.org/2000/svg" width="25.123" height="18.388" viewBox="0 0 25.123 18.388">
  <g id="wellness" transform="translate(0 -56.4)">
    <g id="Group_1063" data-name="Group 1063" transform="translate(0 56.4)">
      <path id="Path_1159" data-name="Path 1159" d="M24.693,65.212H22.567a6.73,6.73,0,0,0,.454-4.728A5.684,5.684,0,0,0,17.648,56.4a6.718,6.718,0,0,0-2.316.43,12.015,12.015,0,0,0-2.675,1.337A11.466,11.466,0,0,0,9.982,56.83a6.821,6.821,0,0,0-2.316-.43,5.684,5.684,0,0,0-5.373,4.084,6.931,6.931,0,0,0,.669,5.158H.382a.382.382,0,0,0,0,.764H3.415a5.041,5.041,0,0,0,.43.645c2.484,3.582,7.881,7.475,8.86,7.713v.024a.074.074,0,0,0,.048-.024h.072V74.74a30.332,30.332,0,0,0,8.74-7.713,8.786,8.786,0,0,0,.669-1.075H24.74a.377.377,0,0,0,.382-.382A.4.4,0,0,0,24.693,65.212Zm-3.821,1.409c-2.531,3.7-7.188,6.687-8.191,7.331-1.027-.645-5.66-3.654-8.215-7.331l-.143-.215h3.51a.394.394,0,0,0,.358-.215l1.6-3.152L12.3,69.463a.391.391,0,0,0,.358.239h.024a.38.38,0,0,0,.358-.287l2.2-7.522,1.17,3.8a.389.389,0,0,0,.31.263.413.413,0,0,0,.382-.167l.931-1.361.788,1.337a.381.381,0,0,0,.334.191H21.3C21.158,66.191,21.015,66.406,20.872,66.621Zm.86-1.409h-2.34l-.979-1.672a.381.381,0,0,0-.334-.191.361.361,0,0,0-.334.167l-.812,1.194-1.313-4.275a.443.443,0,0,0-.382-.287.409.409,0,0,0-.382.287L12.633,68.1,10.221,61.94a.359.359,0,0,0-.334-.239.37.37,0,0,0-.358.215l-1.887,3.7h-3.8A6.444,6.444,0,0,1,3.057,60.7a4.879,4.879,0,0,1,4.633-3.51,6.353,6.353,0,0,1,2.054.382,11.609,11.609,0,0,1,2.7,1.385.363.363,0,0,0,.478,0,10.411,10.411,0,0,1,2.7-1.385,5.773,5.773,0,0,1,2.054-.382A4.9,4.9,0,0,1,22.3,60.7,6.278,6.278,0,0,1,21.731,65.212Z" transform="translate(0 -56.4)" fill="#1a8acc"/>
    </g>
  </g>
</svg>
