<svg id="fav-empty" xmlns="http://www.w3.org/2000/svg" width="17.038" height="14.99" viewBox="0 0 17.038 14.99">
  <path id="XMLID_25_" d="M15.265,38.737l-5.082,5.18a2.536,2.536,0,0,1-3.632,0l-5.082-5.18a5.191,5.191,0,0,1,0-7.234,4.972,4.972,0,0,1,6.9-.218,4.972,4.972,0,0,1,6.9.218A5.191,5.191,0,0,1,15.265,38.737Zm-.732-6.517a3.948,3.948,0,0,0-5.662,0c-.038.039-.073.086-.121.129a.526.526,0,0,1-.768,0c-.045-.046-.082-.09-.121-.129a3.949,3.949,0,0,0-5.662,0,4.162,4.162,0,0,0,0,5.8L7.282,43.2a1.511,1.511,0,0,0,2.169,0l5.082-5.18h0A4.162,4.162,0,0,0,14.533,32.221Z" transform="translate(0.153 -29.847)" fill="#a0a0a0"/>
  <path id="XMLID_25__-_Outline" data-name="XMLID_25_ - Outline" d="M8.394,44.865a2.679,2.679,0,0,1-1.925-.812l-5.083-5.18a5.345,5.345,0,0,1,0-7.449,5.125,5.125,0,0,1,7.008-.314,5.125,5.125,0,0,1,7.008.314,5.345,5.345,0,0,1,0,7.449l-5.083,5.18A2.679,2.679,0,0,1,8.394,44.865ZM5.058,30.181a4.806,4.806,0,0,0-3.453,1.457,5.037,5.037,0,0,0,0,7.02l5.083,5.18a2.383,2.383,0,0,0,3.413,0l5.082-5.18a5.037,5.037,0,0,0,0-7.02A4.819,4.819,0,0,0,8.5,31.427l-.1.093-.1-.093A4.819,4.819,0,0,0,5.058,30.181ZM8.394,43.84a1.662,1.662,0,0,1-1.194-.5l-5.082-5.18a4.316,4.316,0,0,1,0-6.014,4.1,4.1,0,0,1,5.881,0l.063.067.059.063a.38.38,0,0,0,.557-.008A.712.712,0,0,0,8.74,32.2c.017-.019.033-.037.049-.055a4.1,4.1,0,0,1,5.881,0,4.316,4.316,0,0,1,0,6.014l-5.082,5.18A1.662,1.662,0,0,1,8.394,43.84ZM5.058,31.206a3.788,3.788,0,0,0-2.722,1.15,4.008,4.008,0,0,0,0,5.585l5.082,5.18a1.358,1.358,0,0,0,1.95,0l5.082-5.18a4.008,4.008,0,0,0,0-5.585,3.8,3.8,0,0,0-5.443,0c-.013.013-.025.027-.037.041a.976.976,0,0,1-.092.1.754.754,0,0,1-.5.2.669.669,0,0,1-.481-.213l-.064-.069-.056-.059A3.788,3.788,0,0,0,5.058,31.206Z" transform="translate(0.125 -29.875)" fill="#a0a0a0"/>
</svg>
