<svg xmlns="http://www.w3.org/2000/svg" width="22.037" height="14.218" viewBox="0 0 22.037 14.218">
  <path id="workout" d="M28.615,101.681v-3.2a1.421,1.421,0,0,0-2.141-1.225,1.422,1.422,0,0,0-2.835.159v4.265H14.4V97.416a1.422,1.422,0,0,0-2.834-.159,1.421,1.421,0,0,0-2.142,1.225v3.2a1.422,1.422,0,1,0,0,2.843v3.2a1.421,1.421,0,0,0,2.142,1.225,1.422,1.422,0,0,0,2.834-.159v-4.265h9.241v4.265a1.422,1.422,0,0,0,2.835.159,1.421,1.421,0,0,0,2.141-1.225v-3.2a1.422,1.422,0,1,0,0-2.843ZM9.422,103.814a.711.711,0,0,1,0-1.422Zm1.422,4.621a.712.712,0,0,1-.711-.711V98.482a.711.711,0,0,1,1.422,0v9.241a.712.712,0,0,1-.711.711Zm2.843.355a.711.711,0,0,1-1.422,0V97.416a.711.711,0,0,1,1.422,0Zm.711-4.976v-1.422h9.241v1.422Zm11.374,4.976a.711.711,0,0,1-1.422,0V97.416a.711.711,0,0,1,1.422,0Zm2.133-1.066a.711.711,0,0,1-1.422,0V98.482a.711.711,0,0,1,1.422,0Zm.711-3.91v-1.422a.711.711,0,0,1,0,1.422Z" transform="translate(-8 -95.994)" fill="#1a8acc"/>
</svg>
